<svg width="63" height="80" viewBox="0 0 63 80" fill="none" xmlns="http://www.w3.org/2000/svg">
<path d="M24.5407 29.4334C24.4344 28.6904 23.7982 28.1387 23.0477 28.1387H4.0587C3.30837 28.1387 2.67215 28.6903 2.56592 29.4331L0.13968 46.3851C-0.356125 49.8499 0.473623 52.9405 2.53911 55.3226C4.69425 57.8082 8.17359 59.4047 12.0449 59.7358V76.9785H8.43968C7.60674 76.9785 6.93165 77.6536 6.93165 78.4866C6.93165 79.3195 7.60674 79.9946 8.43968 79.9946H18.6632C19.4962 79.9946 20.1713 79.3195 20.1713 78.4866C20.1713 77.6536 19.4962 76.9785 18.6632 76.9785H15.0609V59.7353C18.9315 59.4034 22.41 57.8057 24.5653 55.3196C26.6306 52.9371 27.4599 49.8475 26.9636 46.3851L24.5407 29.4334ZM22.2864 53.3441C20.4187 55.4984 17.1532 56.7848 13.5507 56.7848C9.94904 56.7848 6.68434 55.4994 4.81774 53.3466C3.32111 51.6206 2.75158 49.4221 3.12506 46.8122L5.36616 31.1547H21.7398L23.9779 46.8125C24.3518 49.4206 23.7828 51.6181 22.2864 53.3441Z" fill="#1D1D1D" fill-opacity="0.3"/>
<path d="M54.8039 21.8734V8.43689C55.7042 7.91461 56.3124 6.94261 56.3124 5.82935V3.02191C56.3124 1.35555 54.9592 0 53.2959 0H44.3168C42.6534 0 41.3002 1.35555 41.3002 3.02191V5.82935C41.3002 6.94261 41.9085 7.91444 42.8086 8.43689V21.8667C37.8412 23.999 34.9778 28.567 35.0932 34.2863L35.9196 75.6158C35.9523 79.7882 46.6589 80 48.8078 80C50.9563 80 61.6617 79.788 61.6931 75.615L62.5223 34.2858C62.6349 28.571 59.77 24.0059 54.8039 21.8734ZM53.2964 3.02191L53.2974 5.82851C53.2974 5.82851 53.2969 5.82851 53.2959 5.82851H44.3166C44.3164 5.82851 44.3164 5.82851 44.3163 5.82851L44.3168 3.01588L53.2964 3.02191ZM44.8071 24.3266C45.416 24.1172 45.8246 23.5444 45.8246 22.9005L45.8248 8.84473H51.7879V22.9071C51.7879 23.5508 52.1964 24.1235 52.8053 24.333C57.1584 25.8308 59.6013 29.4368 59.5069 34.2259L59.3003 44.5204C58.8912 44.1422 58.4384 43.7838 57.9443 43.4482C55.4835 41.777 52.2388 40.8566 48.8078 40.8566C45.3757 40.8566 42.13 41.777 39.6687 43.4482C39.1753 43.7833 38.7232 44.1412 38.3145 44.5187L38.1086 34.2259C38.0117 29.4318 40.4532 25.8237 44.8071 24.3266ZM59.0225 50.3288C59.0225 53.8249 54.3446 56.7784 48.8077 56.7784C43.269 56.7784 38.59 53.8249 38.59 50.3288C38.59 46.8292 43.2692 43.8726 48.8077 43.8726C54.3446 43.8724 59.0225 46.8292 59.0225 50.3288ZM48.8078 76.9841C43.1623 76.9841 39.688 75.9386 38.9306 75.3266L38.5509 56.3409C38.8966 56.642 39.2674 56.9313 39.6692 57.2039C42.1307 58.8744 45.3762 59.7943 48.8078 59.7943C52.2383 59.7943 55.4829 58.8744 57.944 57.2039C58.3459 56.9309 58.7169 56.6414 59.0632 56.3399L58.6822 75.3265C57.925 75.9384 54.4519 76.9841 48.8078 76.9841Z" fill="#1D1D1D" fill-opacity="0.3"/>
</svg>
