<svg width="889" height="918" viewBox="0 0 889 918" fill="none" xmlns="http://www.w3.org/2000/svg">
<g filter="url(#filter0_d)">
<rect x="100.311" y="565.032" width="611.167" height="386" rx="22.5167" transform="rotate(-50 100.311 565.032)" fill="url(#paint0_linear)"/>
<path d="M403.185 299.986L412.703 307.973C413.366 308.53 413.981 308.783 414.547 308.733C415.109 308.64 415.708 308.215 416.344 307.457L418.281 305.149L422.472 308.665L419.849 311.791C416.333 315.982 412.538 316.369 408.466 312.951L398.983 304.994L397.016 307.338L392.931 303.911L394.898 301.567L390.032 297.484L394.234 292.476L399.1 296.559L402.796 292.155L406.88 295.582L403.185 299.986ZM432.528 297.33C430.938 299.225 429.093 300.582 426.993 301.402C424.869 302.202 422.67 302.394 420.396 301.979C418.142 301.54 416.008 300.476 413.996 298.787C411.983 297.098 410.575 295.17 409.771 293.003C408.987 290.812 408.826 288.599 409.289 286.364C409.728 284.11 410.742 282.036 412.331 280.142C413.921 278.247 415.788 276.888 417.931 276.065C420.051 275.221 422.249 275.007 424.523 275.422C426.817 275.814 428.97 276.854 430.983 278.543C432.995 280.232 434.384 282.183 435.148 284.398C435.932 286.589 436.095 288.824 435.636 291.102C435.173 293.336 434.137 295.413 432.528 297.33ZM428.195 293.695C428.95 292.795 429.442 291.775 429.671 290.636C429.897 289.454 429.77 288.258 429.292 287.05C428.813 285.841 427.946 284.71 426.691 283.657C424.821 282.088 422.971 281.383 421.142 281.543C419.309 281.659 417.797 282.428 416.605 283.849C415.413 285.269 414.919 286.892 415.122 288.717C415.322 290.499 416.357 292.174 418.228 293.744C420.098 295.313 421.93 296.064 423.723 295.995C425.512 295.882 427.003 295.115 428.195 293.695ZM430.836 264.941C430.33 263.428 430.209 261.914 430.471 260.399C430.754 258.86 431.451 257.428 432.564 256.102L437.785 260.483L436.682 261.797C435.371 263.36 434.744 264.852 434.803 266.273C434.881 267.67 435.832 269.133 437.655 270.663L447.458 278.889L443.285 283.861L423.609 267.351L427.781 262.378L430.836 264.941ZM462.389 261.743C460.8 263.637 458.955 264.994 456.855 265.814C454.731 266.615 452.531 266.807 450.257 266.392C448.003 265.953 445.87 264.889 443.857 263.2C441.844 261.511 440.436 259.583 439.632 257.415C438.848 255.224 438.687 253.011 439.15 250.777C439.589 248.523 440.603 246.448 442.193 244.554C443.782 242.66 445.649 241.301 447.793 240.477C449.913 239.634 452.11 239.419 454.384 239.835C456.678 240.226 458.831 241.267 460.844 242.955C462.857 244.644 464.245 246.596 465.009 248.811C465.793 251.002 465.956 253.237 465.497 255.515C465.034 257.749 463.998 259.825 462.389 261.743ZM458.056 258.107C458.811 257.207 459.303 256.188 459.533 255.049C459.758 253.867 459.632 252.671 459.153 251.462C458.674 250.254 457.808 249.123 456.553 248.07C454.682 246.5 452.832 245.795 451.003 245.955C449.171 246.072 447.658 246.84 446.466 248.261C445.274 249.682 444.78 251.305 444.983 253.13C445.183 254.911 446.218 256.587 448.089 258.157C449.959 259.726 451.791 260.476 453.584 260.407C455.373 260.295 456.864 259.528 458.056 258.107ZM462.413 229.401L471.931 237.388C472.594 237.944 473.209 238.198 473.775 238.148C474.337 238.055 474.936 237.63 475.572 236.872L477.509 234.564L481.7 238.08L479.077 241.206C475.561 245.397 471.766 245.783 467.693 242.366L458.211 234.409L456.244 236.753L452.159 233.326L454.126 230.982L449.26 226.899L453.462 221.891L458.328 225.974L462.024 221.57L466.108 224.997L462.413 229.401ZM471.655 216.295C471.15 214.781 471.028 213.267 471.291 211.752C471.573 210.214 472.27 208.781 473.383 207.455L478.604 211.836L477.501 213.15C476.19 214.713 475.564 216.205 475.622 217.626C475.7 219.023 476.651 220.487 478.474 222.017L488.277 230.242L484.105 235.214L464.429 218.704L468.601 213.732L471.655 216.295ZM500.641 194.661C501.352 195.258 501.951 195.841 502.44 196.413L490.37 210.797C491.89 211.871 493.42 212.307 494.96 212.107C496.501 211.906 497.807 211.167 498.88 209.888C500.43 208.041 500.739 206.061 499.808 203.949L504.308 198.586C505.726 200.744 506.375 203.144 506.255 205.787C506.111 208.411 505.056 210.894 503.089 213.238C501.5 215.133 499.655 216.49 497.555 217.31C495.451 218.086 493.271 218.255 491.017 217.816C488.783 217.353 486.659 216.278 484.647 214.589C482.61 212.88 481.17 210.966 480.327 208.846C479.483 206.725 479.273 204.572 479.696 202.385C480.119 200.198 481.145 198.133 482.774 196.192C484.343 194.321 486.147 192.99 488.183 192.197C490.24 191.381 492.352 191.196 494.519 191.643C496.683 192.046 498.723 193.052 500.641 194.661ZM494.899 198.619C493.601 197.57 492.195 197.177 490.683 197.441C489.146 197.686 487.832 198.459 486.739 199.761C485.706 200.992 485.21 202.352 485.253 203.84C485.292 205.285 485.894 206.658 487.061 207.96L494.899 198.619ZM518.439 173.451C519.149 174.047 519.748 174.631 520.237 175.203L508.167 189.587C509.687 190.661 511.218 191.097 512.758 190.897C514.298 190.696 515.604 189.957 516.677 188.678C518.227 186.831 518.536 184.851 517.606 182.739L522.106 177.376C523.523 179.534 524.172 181.934 524.052 184.577C523.909 187.201 522.854 189.684 520.887 192.028C519.297 193.923 517.452 195.28 515.352 196.1C513.248 196.876 511.069 197.045 508.814 196.606C506.58 196.143 504.457 195.067 502.444 193.379C500.408 191.67 498.968 189.756 498.124 187.635C497.28 185.515 497.07 183.362 497.493 181.175C497.916 178.988 498.942 176.923 500.571 174.982C502.141 173.111 503.944 171.78 505.981 170.987C508.037 170.171 510.149 169.986 512.317 170.433C514.48 170.836 516.521 171.842 518.439 173.451ZM512.697 177.409C511.398 176.36 509.993 175.967 508.48 176.231C506.944 176.476 505.629 177.249 504.536 178.551C503.503 179.782 503.008 181.142 503.05 182.63C503.089 184.075 503.692 185.448 504.859 186.75L512.697 177.409Z" fill="white"/>
<rect x="362.67" y="317.48" width="6.49091" height="49.1455" rx="3.24545" transform="rotate(-50 362.67 317.48)" fill="white"/>
<rect x="363.729" y="314.145" width="6.49091" height="23.6455" rx="3.24545" transform="rotate(-5 363.729 314.145)" fill="white"/>
<rect x="364.305" y="320.598" width="6.49091" height="23.6455" rx="3.24545" transform="rotate(-95 364.305 320.598)" fill="white"/>
<rect x="376.16" y="324.575" width="6.49091" height="23.6455" rx="3.24545" transform="rotate(-5 376.16 324.575)" fill="white"/>
<rect x="376.736" y="331.028" width="6.49091" height="23.6455" rx="3.24545" transform="rotate(-95 376.736 331.028)" fill="white"/>
<rect x="244.041" y="607.255" width="96.5" height="70.7667" rx="9.65" transform="rotate(-50 244.041 607.255)" fill="#F7F7F7" fill-opacity="0.2"/>
<rect opacity="0.2" x="274.706" y="592.394" width="34.3111" height="42.8889" rx="3.21667" transform="rotate(-50 274.706 592.394)" stroke="#DCE6E5" stroke-width="2.14444"/>
<rect opacity="0.3" x="301.82" y="571.757" width="32.1667" height="2.14444" transform="rotate(-50 301.82 571.757)" fill="white"/>
<rect opacity="0.3" x="274.365" y="571.114" width="2.14444" height="15.0111" transform="rotate(-50 274.365 571.114)" fill="white"/>
<rect opacity="0.3" x="317.078" y="606.953" width="2.14444" height="15.0111" transform="rotate(-50 317.078 606.953)" fill="white"/>
<rect opacity="0.3" x="311.678" y="580.027" width="32.1667" height="2.14444" transform="rotate(-50 311.678 580.027)" fill="white"/>
<rect opacity="0.3" x="321.533" y="588.298" width="32.1667" height="2.14444" transform="rotate(-50 321.533 588.298)" fill="white"/>
<rect opacity="0.3" x="260.469" y="621.039" width="32.1667" height="2.14444" transform="rotate(-50 260.469 621.039)" fill="white"/>
<rect opacity="0.3" x="270.324" y="629.309" width="32.1667" height="2.14444" transform="rotate(-50 270.324 629.309)" fill="white"/>
<rect opacity="0.3" x="280.182" y="637.58" width="32.1667" height="2.14444" transform="rotate(-50 280.182 637.58)" fill="white"/>
<path fill-rule="evenodd" clip-rule="evenodd" d="M689.565 351.947C687.995 352.825 685.761 354.403 683.643 356.927C678.237 363.369 677.741 370.68 682.448 374.693C685.917 377.674 690.622 376.038 693.859 374.545C697.184 373.008 698.663 372.796 699.723 373.702C701.341 375.089 700.403 377.726 698.831 379.599C696.642 382.208 695.111 383.285 692.403 384.664L691.311 385.176L696.004 390.667C697.958 389.717 700.911 387.395 703.395 384.498C709.139 377.652 709.604 370.461 704.588 366.163C701.829 363.808 698.265 363.777 693.371 366.078C690.33 367.406 688.409 368.175 687.278 367.199C686.266 366.347 686.17 364.258 688.312 361.706C690.067 359.547 691.836 358.402 693.34 357.615L694.11 357.265L689.565 351.947ZM688.048 402.053L667.088 377.519L672.555 371.004L693.516 395.537L688.048 402.053ZM698.791 339.788L703.016 334.752L731.805 349.923L726.731 355.971C726.731 355.971 723.427 354.218 722.412 353.699C721.991 354.202 720.227 356.296 718.567 358.268L718.564 358.272L718.558 358.279C717.083 360.031 715.691 361.683 715.397 362.034C715.844 362.841 717.913 366.48 717.913 366.48L712.171 373.323L697.946 344.899C696.931 342.881 697.48 341.35 698.791 339.788ZM711.983 355.974C711.035 354.258 707.347 347.66 707.347 347.66C707.362 347.704 707.15 347.324 706.854 346.797L706.853 346.795C706.521 346.202 706.084 345.422 705.747 344.842L708.219 346.167C708.219 346.167 715.087 349.8 716.522 350.565L711.983 355.974ZM670.372 407.403L659.102 387.078L664.895 380.174L680.62 410.854L674.838 417.753L648.62 405.696C654.206 403.332 661.53 403.173 666.42 405.251L670.372 407.403Z" fill="white"/>
<path fill-rule="evenodd" clip-rule="evenodd" d="M648.166 399.207L639.123 409.984L639.576 410.515C648.721 403.898 658.465 402.62 666.515 405.451L652.855 397.979C650.904 397.03 649.44 397.803 648.166 399.207" fill="white"/>
</g>
<defs>
<filter id="filter0_d" x="0.310547" y="0.851562" width="888.544" height="916.297" filterUnits="userSpaceOnUse" color-interpolation-filters="sRGB">
<feFlood flood-opacity="0" result="BackgroundImageFix"/>
<feColorMatrix in="SourceAlpha" type="matrix" values="0 0 0 0 0 0 0 0 0 0 0 0 0 0 0 0 0 0 127 0"/>
<feOffset dy="4"/>
<feGaussianBlur stdDeviation="50"/>
<feColorMatrix type="matrix" values="0 0 0 0 0 0 0 0 0 0 0 0 0 0 0 0 0 0 0.2 0"/>
<feBlend mode="normal" in2="BackgroundImageFix" result="effect1_dropShadow"/>
<feBlend mode="normal" in="SourceGraphic" in2="effect1_dropShadow" result="shape"/>
</filter>
<linearGradient id="paint0_linear" x1="100.311" y1="565.032" x2="711.311" y2="951.032" gradientUnits="userSpaceOnUse">
<stop stop-color="#18A8FA"/>
<stop offset="0.512365" stop-color="#1BE082"/>
<stop offset="1" stop-color="#EFE609"/>
</linearGradient>
</defs>
</svg>
