<svg width="77" height="80" viewBox="0 0 77 80" fill="none" xmlns="http://www.w3.org/2000/svg">
<path d="M0 25.479C0 26.3222 0.587569 27.0524 1.41286 27.2318C12.5453 29.6547 21.3041 38.4145 23.727 49.5469C23.9064 50.3713 24.6366 50.9588 25.4799 50.9588C26.324 50.9588 27.0533 50.3713 27.2327 49.5469C29.6556 38.4145 38.4144 29.6547 49.5469 27.2318C50.3712 27.0524 50.9597 26.3222 50.9597 25.479C50.9597 24.6357 50.3712 23.9055 49.5469 23.7261C46.4386 23.0497 43.4774 21.8728 40.7441 20.2276C39.8955 19.7181 38.7921 19.9908 38.2817 20.8403C37.7704 21.6889 38.0449 22.7914 38.8935 23.3027C40.2785 24.137 41.7165 24.8627 43.1984 25.4799C35.2003 28.8061 28.8052 35.203 25.479 43.2002C22.1527 35.203 15.7558 28.8061 7.7586 25.4799C15.7567 22.1536 22.1536 15.7558 25.4799 7.7577C26.9824 11.3683 29.1309 14.7045 31.8346 17.5921C32.5118 18.3151 33.6475 18.3537 34.3705 17.6755C35.0936 16.9982 35.1312 15.8626 34.454 15.1395C30.846 11.2858 28.3486 6.53951 27.2327 1.41196C27.0533 0.587569 26.324 0 25.4799 0C24.6366 0 23.9064 0.587569 23.727 1.41196C21.3032 12.5444 12.5444 21.3041 1.41286 23.727C0.588466 23.9055 0 24.6348 0 25.479Z" fill="#1D1D1D" fill-opacity="0.3"/>
<path d="M76.2419 50.2103C76.2419 49.3671 75.6543 48.6369 74.8299 48.4575C67.7262 46.9101 62.1376 41.3215 60.591 34.2186C60.4116 33.3942 59.6823 32.8066 58.8382 32.8066C57.995 32.8066 57.2648 33.3942 57.0854 34.2186C55.5388 41.3215 49.9493 46.9101 42.8456 48.4575C42.0212 48.6369 41.4336 49.3671 41.4336 50.2103C41.4336 51.0536 42.0221 51.7838 42.8465 51.9632C45.5941 52.5615 48.218 53.8057 50.4346 55.5622C51.2115 56.1784 52.3408 56.0475 52.9553 55.2706C53.5707 54.4947 53.4406 53.3662 52.6638 52.7499C51.4187 51.7622 50.065 50.9109 48.6378 50.2121C53.0675 48.0404 56.6664 44.4414 58.8391 40.0145C61.01 44.4414 64.608 48.0386 69.035 50.2103C64.608 52.3812 61.01 55.9802 58.8391 60.4053C58.4695 59.6536 58.0569 58.9207 57.6012 58.2085C57.0665 57.3742 55.9569 57.1302 55.1226 57.6657C54.2883 58.2013 54.0452 59.31 54.5799 60.1452C55.7739 62.0084 56.6171 64.0465 57.0863 66.203C57.2657 67.0274 57.9959 67.6149 58.8391 67.6149C59.6832 67.6149 60.4125 67.0274 60.5919 66.203C62.1384 59.0992 67.7271 53.5106 74.8308 51.9641C75.6534 51.7838 76.2419 51.0536 76.2419 50.2103Z" fill="#1D1D1D" fill-opacity="0.3"/>
<path d="M32.3211 56.994C32.1417 56.1696 31.4115 55.582 30.5682 55.582C29.7241 55.582 28.9948 56.1696 28.8154 56.994C27.8331 61.5062 24.2835 65.0558 19.7722 66.0381C18.9478 66.2175 18.3594 66.9477 18.3594 67.7909C18.3594 68.6341 18.9469 69.3643 19.7713 69.5437C24.2835 70.5269 27.8331 74.0765 28.8154 78.5878C28.9948 79.4122 29.7241 79.9998 30.5682 79.9998C31.4115 79.9998 32.1417 79.4122 32.3211 78.5878C33.3034 74.0765 36.853 70.5269 41.3652 69.5437C42.1896 69.3643 42.7771 68.6341 42.7771 67.7909C42.7771 66.9477 42.1887 66.2175 41.3643 66.0381C36.853 65.0567 33.3034 61.5071 32.3211 56.994ZM30.5674 73.3338C29.2272 71.0445 27.3146 69.1311 25.0254 67.7909C27.3146 66.4516 29.2272 64.5382 30.5674 62.2489C31.9075 64.5382 33.8201 66.4516 36.1093 67.7909C33.821 69.132 31.9084 71.0445 30.5674 73.3338Z" fill="#1D1D1D" fill-opacity="0.3"/>
</svg>
