<svg width="959" height="220" viewBox="0 0 959 220" fill="none" xmlns="http://www.w3.org/2000/svg">
<path d="M213.89 92.2V145.8C213.89 149.533 214.757 152.267 216.49 154C218.357 155.6 221.424 156.4 225.69 156.4H238.69V180H221.09C197.49 180 185.69 168.533 185.69 145.6V92.2H172.49V69.2H185.69V41.8H213.89V69.2H238.69V92.2H213.89ZM304.029 181.8C293.363 181.8 283.763 179.467 275.229 174.8C266.696 170 259.963 163.267 255.029 154.6C250.229 145.933 247.829 135.933 247.829 124.6C247.829 113.267 250.296 103.267 255.229 94.6C260.296 85.9333 267.163 79.2667 275.829 74.6C284.496 69.8 294.163 67.4 304.829 67.4C315.496 67.4 325.163 69.8 333.829 74.6C342.496 79.2667 349.296 85.9333 354.229 94.6C359.296 103.267 361.829 113.267 361.829 124.6C361.829 135.933 359.229 145.933 354.029 154.6C348.963 163.267 342.029 170 333.229 174.8C324.563 179.467 314.829 181.8 304.029 181.8ZM304.029 157.4C309.096 157.4 313.829 156.2 318.229 153.8C322.763 151.267 326.363 147.533 329.029 142.6C331.696 137.667 333.029 131.667 333.029 124.6C333.029 114.067 330.229 106 324.629 100.4C319.163 94.6667 312.429 91.8 304.429 91.8C296.429 91.8 289.696 94.6667 284.229 100.4C278.896 106 276.229 114.067 276.229 124.6C276.229 135.133 278.829 143.267 284.029 149C289.363 154.6 296.029 157.4 304.029 157.4ZM406.368 86.4C409.968 80.5333 414.635 75.9333 420.368 72.6C426.235 69.2667 432.902 67.6 440.368 67.6V97H432.968C424.168 97 417.502 99.0667 412.968 103.2C408.568 107.333 406.368 114.533 406.368 124.8V180H378.368V69.2H406.368V86.4ZM504.428 181.8C493.761 181.8 484.161 179.467 475.628 174.8C467.094 170 460.361 163.267 455.428 154.6C450.628 145.933 448.228 135.933 448.228 124.6C448.228 113.267 450.694 103.267 455.628 94.6C460.694 85.9333 467.561 79.2667 476.228 74.6C484.894 69.8 494.561 67.4 505.228 67.4C515.894 67.4 525.561 69.8 534.228 74.6C542.894 79.2667 549.694 85.9333 554.628 94.6C559.694 103.267 562.228 113.267 562.228 124.6C562.228 135.933 559.628 145.933 554.428 154.6C549.361 163.267 542.428 170 533.628 174.8C524.961 179.467 515.228 181.8 504.428 181.8ZM504.428 157.4C509.494 157.4 514.228 156.2 518.628 153.8C523.161 151.267 526.761 147.533 529.428 142.6C532.094 137.667 533.428 131.667 533.428 124.6C533.428 114.067 530.628 106 525.028 100.4C519.561 94.6667 512.828 91.8 504.828 91.8C496.828 91.8 490.094 94.6667 484.628 100.4C479.294 106 476.628 114.067 476.628 124.6C476.628 135.133 479.228 143.267 484.428 149C489.761 154.6 496.428 157.4 504.428 157.4ZM611.367 92.2V145.8C611.367 149.533 612.233 152.267 613.967 154C615.833 155.6 618.9 156.4 623.167 156.4H636.167V180H618.567C594.967 180 583.167 168.533 583.167 145.6V92.2H569.967V69.2H583.167V41.8H611.367V69.2H636.167V92.2H611.367ZM680.306 86.4C683.906 80.5333 688.573 75.9333 694.306 72.6C700.173 69.2667 706.839 67.6 714.306 67.6V97H706.906C698.106 97 691.439 99.0667 686.906 103.2C682.506 107.333 680.306 114.533 680.306 124.8V180H652.306V69.2H680.306V86.4ZM832.165 122.2C832.165 126.2 831.899 129.8 831.365 133H750.365C751.032 141 753.832 147.267 758.765 151.8C763.699 156.333 769.765 158.6 776.965 158.6C787.365 158.6 794.765 154.133 799.165 145.2H829.365C826.165 155.867 820.032 164.667 810.965 171.6C801.899 178.4 790.765 181.8 777.565 181.8C766.899 181.8 757.299 179.467 748.765 174.8C740.365 170 733.765 163.267 728.965 154.6C724.299 145.933 721.965 135.933 721.965 124.6C721.965 113.133 724.299 103.067 728.965 94.4C733.632 85.7333 740.165 79.0667 748.565 74.4C756.965 69.7333 766.632 67.4 777.565 67.4C788.099 67.4 797.499 69.6667 805.765 74.2C814.165 78.7333 820.632 85.2 825.165 93.6C829.832 101.867 832.165 111.4 832.165 122.2ZM803.165 114.2C803.032 107 800.432 101.267 795.365 97C790.299 92.6 784.099 90.4 776.765 90.4C769.832 90.4 763.965 92.5333 759.165 96.8C754.499 100.933 751.632 106.733 750.565 114.2H803.165ZM951.603 122.2C951.603 126.2 951.336 129.8 950.803 133H869.803C870.469 141 873.269 147.267 878.203 151.8C883.136 156.333 889.203 158.6 896.403 158.6C906.803 158.6 914.203 154.133 918.603 145.2H948.803C945.603 155.867 939.469 164.667 930.403 171.6C921.336 178.4 910.203 181.8 897.003 181.8C886.336 181.8 876.736 179.467 868.203 174.8C859.803 170 853.203 163.267 848.403 154.6C843.736 145.933 841.403 135.933 841.403 124.6C841.403 113.133 843.736 103.067 848.403 94.4C853.069 85.7333 859.603 79.0667 868.003 74.4C876.403 69.7333 886.069 67.4 897.003 67.4C907.536 67.4 916.936 69.6667 925.203 74.2C933.603 78.7333 940.069 85.2 944.603 93.6C949.269 101.867 951.603 111.4 951.603 122.2ZM922.603 114.2C922.469 107 919.869 101.267 914.803 97C909.736 92.6 903.536 90.4 896.203 90.4C889.269 90.4 883.403 92.5333 878.603 96.8C873.936 100.933 871.069 106.733 870.003 114.2H922.603Z" fill="#2D3748"/>
<path fill-rule="evenodd" clip-rule="evenodd" d="M23.8995 84.2744L52.3651 55.8088V86.2109L4.10051 134.475C-1.36683 139.943 -1.36684 148.807 4.1005 154.274C9.56784 159.742 18.4322 159.742 23.8995 154.274L52.3651 125.809V206C52.3651 213.732 58.6331 220 66.3651 220C74.0971 220 80.3651 213.732 80.3651 206V125.809L108.831 154.274C114.298 159.742 123.162 159.742 128.63 154.274C134.097 148.807 134.097 139.943 128.63 134.475L80.3651 86.2109V55.8089L108.831 84.2744C114.298 89.7417 123.162 89.7417 128.63 84.2744C134.097 78.807 134.097 69.9427 128.63 64.4754L76.5732 12.419C74.0193 9.69898 70.3906 8 66.3651 8C62.3396 8 58.711 9.69892 56.1571 12.4188L4.10051 64.4754C-1.36683 69.9428 -1.36684 78.8071 4.1005 84.2744C9.56784 89.7418 18.4322 89.7418 23.8995 84.2744Z" fill="url(#paint0_linear)"/>
<defs>
<linearGradient id="paint0_linear" x1="0" y1="8" x2="174.748" y2="51.6536" gradientUnits="userSpaceOnUse">
<stop stop-color="#18A8FA"/>
<stop offset="0.512365" stop-color="#1BE082"/>
<stop offset="1" stop-color="#EFE609"/>
</linearGradient>
</defs>
</svg>
