<svg width="141" height="80" viewBox="0 0 141 80" fill="none" xmlns="http://www.w3.org/2000/svg">
<path d="M33.1017 53.7277C31.315 53.7278 29.5685 54.2577 28.083 55.2503C26.5975 56.243 25.4397 57.6539 24.756 59.3046C24.0723 60.9553 23.8934 62.7716 24.242 64.524C24.5906 66.2763 25.451 67.8859 26.7143 69.1493C27.9777 70.4126 29.5873 71.273 31.3397 71.6216C33.092 71.9702 34.9083 71.7913 36.559 71.1076C38.2097 70.424 39.6206 69.2661 40.6133 67.7806C41.6059 66.2951 42.1358 64.5486 42.1359 62.7619C42.1331 60.3667 41.1804 58.0705 39.4868 56.3768C37.7931 54.6832 35.4969 53.7305 33.1017 53.7277V53.7277ZM33.1017 69.4955C31.7697 69.4955 30.4677 69.1004 29.3603 68.3604C28.2528 67.6203 27.3897 66.5684 26.8801 65.3378C26.3704 64.1072 26.2372 62.7531 26.4972 61.4468C26.7572 60.1404 27.3987 58.9405 28.3407 57.9988C29.2826 57.0571 30.4827 56.4158 31.7891 56.1561C33.0955 55.8965 34.4496 56.03 35.6801 56.54C36.9106 57.0499 37.9622 57.9133 38.702 59.0209C39.4418 60.1285 39.8365 61.4307 39.8362 62.7626C39.834 64.5479 39.1237 66.2594 37.8612 67.5216C36.5986 68.7838 34.887 69.4937 33.1017 69.4955V69.4955ZM109.03 53.7277C107.243 53.7277 105.496 54.2576 104.011 55.2502C102.525 56.2429 101.368 57.6538 100.684 59.3044C100 60.9551 99.8212 62.7715 100.17 64.5238C100.518 66.2762 101.379 67.8858 102.642 69.1492C103.905 70.4126 105.515 71.273 107.267 71.6216C109.02 71.9702 110.836 71.7913 112.487 71.1077C114.137 70.424 115.548 69.2662 116.541 67.7806C117.534 66.2951 118.064 64.5486 118.064 62.7619C118.061 60.3668 117.108 58.0706 115.415 56.3769C113.721 54.6833 111.425 53.7305 109.03 53.7277ZM109.03 69.4955C107.698 69.4955 106.396 69.1004 105.288 68.3604C104.181 67.6203 103.318 66.5684 102.808 65.3378C102.298 64.1072 102.165 62.7531 102.425 61.4468C102.685 60.1404 103.327 58.9405 104.269 57.9988C105.211 57.0571 106.411 56.4158 107.717 56.1561C109.023 55.8965 110.378 56.03 111.608 56.54C112.839 57.0499 113.89 57.9133 114.63 59.0209C115.37 60.1285 115.764 61.4307 115.764 62.7626C115.762 64.5479 115.052 66.2594 113.789 67.5217C112.527 68.7839 110.815 69.4938 109.03 69.4955ZM138.595 58.8886V55.0962C138.6 50.7412 137.837 46.4194 136.341 42.3295C135.285 39.454 125.809 14.0268 117.68 6.75626C110.126 -0.0116904 93.6675 0.0151957 92.9514 0H62.966C47.4446 0 38.9448 23.2418 37.5145 27.516C34.1013 28.3239 18.5549 32.2984 11.7236 39.1295C10.8339 40.0365 10.0212 41.016 9.29395 42.0578H8.0299C7.25589 42.0542 6.48884 42.204 5.77306 42.4986C5.05728 42.7931 4.40697 43.2266 3.8597 43.774C3.31243 44.3213 2.87906 44.9717 2.58461 45.6875C2.29017 46.4033 2.1405 47.1704 2.14424 47.9444C2.14234 48.9382 2.39219 49.9164 2.87048 50.7875C3.34878 51.6587 4.03994 52.3945 4.87947 52.9263C4.59863 54.4038 4.42611 55.8998 4.36329 57.4025C3.03316 57.6822 1.85394 58.4451 1.05354 59.5436C0.253149 60.6422 -0.111587 61.9985 0.0298278 63.3503C0.171243 64.7022 0.80877 65.9536 1.81919 66.8628C2.82961 67.7719 4.14117 68.2742 5.5004 68.2726H16.8236C17.9618 71.6875 20.1456 74.6578 23.0658 76.7626C25.9859 78.8674 29.4943 80 33.094 80C36.6936 80 40.202 78.8674 43.1222 76.7626C46.0423 74.6578 48.2262 71.6875 49.3644 68.2726H92.7541C93.8927 71.6874 96.0768 74.6574 98.997 76.762C101.917 78.8666 105.426 79.9991 109.025 79.9991C112.625 79.9991 116.133 78.8666 119.053 76.762C121.974 74.6574 124.158 71.6874 125.296 68.2726H134.777C136.235 68.2714 137.632 67.692 138.663 66.6617C139.693 65.6314 140.273 64.2342 140.275 62.7769C140.273 62.0487 140.124 61.3285 139.835 60.6601C139.546 59.9917 139.124 59.3889 138.595 58.8886ZM4.44371 47.9451C4.43633 47.025 4.78584 46.1377 5.41881 45.4698C6.05178 44.8019 6.91896 44.4052 7.8382 44.3631C7.73487 44.5502 7.65398 44.7372 7.55766 44.9242C7.46789 45.0988 7.3849 45.2681 7.29934 45.4418C6.94025 46.1878 6.61436 46.9258 6.34247 47.641C6.31348 47.7186 6.29127 47.789 6.26205 47.8656C6.00793 48.5511 5.7973 49.2059 5.61518 49.8327C5.57941 49.9514 5.54341 50.0665 5.50975 50.1834C5.48637 50.2659 5.45785 50.3561 5.43564 50.4375C4.79628 49.7655 4.44095 48.8727 4.44371 47.9451ZM16.0158 64.8804C16.036 65.0583 16.0626 65.2341 16.09 65.4107C16.1189 65.5977 16.1325 65.7875 16.1687 65.9717H5.5004C4.65753 65.9645 3.85163 65.6246 3.25816 65.0261C2.6647 64.4275 2.33171 63.6187 2.33171 62.7758C2.33171 61.9329 2.6647 61.1241 3.25816 60.5256C3.85163 59.927 4.65753 59.5871 5.5004 59.5799H16.168C16.1344 59.7639 16.1182 59.954 16.0893 60.1387C16.0624 60.3166 16.0353 60.4935 16.0151 60.6724C15.8233 62.0685 15.8233 63.4843 16.0151 64.8804H16.0158ZM47.4631 66.8138C46.5826 69.9471 44.7019 72.7067 42.1077 74.6722C39.5134 76.6376 36.3478 77.7011 33.0931 77.7006C29.8384 77.7001 26.6731 76.6357 24.0794 74.6695C21.4857 72.7033 19.6059 69.9432 18.7263 66.8096C17.9866 64.172 17.9866 61.3818 18.7263 58.7442V58.739C19.608 55.6065 21.4894 52.8479 24.0838 50.8835C26.6782 48.919 29.8436 47.8562 33.0978 47.857C36.3521 47.8578 39.5169 48.9221 42.1104 50.8879C44.7038 52.8536 46.5838 55.6131 47.464 58.746C48.2043 61.3845 48.2034 64.1758 47.4614 66.8138H47.4631ZM91.9462 64.8804C91.9665 65.0583 91.9929 65.2341 92.02 65.4107C92.0495 65.5977 92.0628 65.7875 92.0988 65.9717H50.0223C50.0585 65.7847 50.0716 65.5937 50.1011 65.4053C50.1282 65.232 50.1525 65.0593 50.1752 64.8849C50.3669 63.4861 50.3669 62.0677 50.1752 60.6689C50.1518 60.4928 50.1284 60.3182 50.1011 60.1429C50.0716 59.9558 50.0585 59.7653 50.0223 59.5799H92.0981C92.0621 59.7639 92.0488 59.954 92.0193 60.1387C91.9927 60.3166 91.9679 60.4935 91.9455 60.6724C91.7537 62.0685 91.7537 63.4843 91.9455 64.8804H91.9462ZM123.393 66.8096V66.8152C122.513 69.9484 120.632 72.7077 118.038 74.673C115.443 76.6382 112.278 77.7015 109.023 77.7009C105.768 77.7003 102.603 76.6359 100.01 74.6697C97.4161 72.7036 95.5362 69.9435 94.6566 66.8101C93.9172 64.1724 93.9172 61.3823 94.6566 58.7446V58.7395C95.5375 55.6065 97.4184 52.8472 100.013 50.8822C102.607 48.9171 105.772 47.8538 109.027 47.8544C112.281 47.855 115.447 48.9194 118.04 50.8854C120.634 52.8514 122.514 55.6113 123.393 58.7446C124.133 61.3822 124.133 64.1725 123.393 66.8101V66.8096ZM124.936 56.3128C124.775 55.9142 124.622 55.5133 124.431 55.1316C124.211 54.6895 123.955 54.2759 123.702 53.8579C123.481 53.4967 123.273 53.1299 123.028 52.7877C122.742 52.3902 122.422 52.0253 122.105 51.6545C121.835 51.338 121.577 51.0116 121.286 50.7159C120.94 50.3652 120.562 50.055 120.186 49.734C119.876 49.4689 119.579 49.1891 119.251 48.9469C118.844 48.6467 118.409 48.3952 117.977 48.1312C117.639 47.9248 117.317 47.6976 116.965 47.5143C116.493 47.2681 115.995 47.0792 115.498 46.877C115.155 46.7367 114.825 46.5677 114.47 46.4487C113.896 46.2707 113.312 46.123 112.723 46.0062C112.415 45.9379 112.121 45.8353 111.809 45.7838C109.964 45.4745 108.081 45.4745 106.237 45.7838C105.933 45.8346 105.642 45.9356 105.339 46.0027C104.744 46.1206 104.156 46.2696 103.577 46.4489C103.228 46.5658 102.903 46.7327 102.564 46.8714C102.065 47.0748 101.56 47.2658 101.083 47.5145C100.733 47.6966 100.415 47.9225 100.078 48.1272C99.645 48.3924 99.2072 48.6453 98.7983 48.9455C98.471 49.1886 98.1741 49.4696 97.8631 49.7357C97.4891 50.0538 97.1129 50.362 96.7674 50.711C96.4705 51.0114 96.2101 51.3422 95.9361 51.6655C95.6242 52.0302 95.3098 52.3874 95.0293 52.7786C94.7775 53.1292 94.5643 53.5049 94.3375 53.8757C94.0906 54.2841 93.8391 54.6878 93.6256 55.1192C93.4302 55.5114 93.2729 55.9229 93.1069 56.3329C92.9767 56.6511 92.8128 56.9494 92.7027 57.2781H49.4184C49.3062 56.9431 49.1398 56.6392 49.0074 56.3152C48.8457 55.9142 48.6909 55.5119 48.4999 55.1278C48.282 54.6862 48.0263 54.2731 47.77 53.8556C47.55 53.4946 47.3434 53.1281 47.0986 52.7863C46.8111 52.3853 46.488 52.0188 46.1689 51.6454C45.9017 51.3321 45.648 51.0088 45.3584 50.7159C45.0077 50.3599 44.6217 50.0454 44.2423 49.7214C43.9367 49.4612 43.6473 49.186 43.3261 48.9476C42.913 48.642 42.4658 48.3865 42.0279 48.1172C41.6978 47.9157 41.3836 47.6936 41.04 47.5145C40.5595 47.2634 40.0497 47.0703 39.5438 46.8646C39.209 46.7281 38.8892 46.5637 38.5444 46.4482C37.9628 46.2678 37.372 46.1183 36.7746 46.0003C36.4738 45.9337 36.1864 45.8329 35.8811 45.7827C34.0369 45.4733 32.1541 45.4733 30.3099 45.7827C29.9955 45.8343 29.7021 45.9372 29.3935 46.0059C28.8046 46.1227 28.2223 46.2701 27.6488 46.4475C27.2918 46.5672 26.957 46.7372 26.611 46.8796C26.1201 47.0806 25.6231 47.2679 25.1536 47.5108C24.7966 47.6978 24.4712 47.9271 24.1278 48.1371C23.7033 48.398 23.2722 48.646 22.8701 48.9424C22.5355 49.1893 22.2346 49.4743 21.9181 49.7452C21.5497 50.0597 21.1768 50.3636 20.8357 50.708C20.5369 51.0119 20.2746 51.3452 19.9978 51.6702C19.6881 52.033 19.3757 52.3884 19.095 52.7769C18.8439 53.1276 18.6302 53.5051 18.4034 53.8757C18.1563 54.2834 17.9048 54.6857 17.6916 55.1161C17.4964 55.5089 17.3372 55.921 17.1731 56.3318C17.0428 56.65 16.879 56.948 16.7691 57.2763H6.6693C6.74797 55.6849 6.95673 54.1027 7.29349 52.5455C7.9245 49.4511 9.12381 46.5006 10.8306 43.8434C11.5675 42.7344 12.4115 41.7004 13.3503 40.7561C20.406 33.7002 38.4716 29.6544 38.6533 29.6144C38.8516 29.5708 39.0348 29.4755 39.1843 29.3382C39.3338 29.2009 39.4444 29.0265 39.5047 28.8326C39.5877 28.5671 47.9143 2.3004 62.9665 2.3004H92.9577C93.1681 2.29362 109.256 2.2976 116.145 8.46941C122.411 14.0729 130.429 32.8876 134.18 43.1206C135.584 46.9569 136.301 51.011 136.296 55.0962V57.4976C136.25 57.4843 136.198 57.4897 136.154 57.4775C135.705 57.3529 135.243 57.2869 134.777 57.2814H125.348C125.236 56.9452 125.067 56.6397 124.935 56.3138L124.936 56.3128ZM134.779 65.972H125.951C125.985 65.7875 126 65.5979 126.03 65.4127C126.057 65.2348 126.084 65.0583 126.104 64.8793C126.296 63.4831 126.296 62.0673 126.104 60.6712C126.084 60.4933 126.057 60.3175 126.03 60.141C126 59.954 125.987 59.7641 125.951 59.5799H134.779C135.623 59.5916 136.429 59.932 137.026 60.5287C137.623 61.1255 137.964 61.9316 137.976 62.7757C137.975 63.6237 137.638 64.4367 137.038 65.0362C136.439 65.6358 135.626 65.9729 134.778 65.9736L134.779 65.972ZM77.5675 5.75007H62.966C51.2036 5.75007 43.4407 27.8875 43.115 28.8298C43.0551 29.003 43.0375 29.188 43.0637 29.3693C43.0898 29.5507 43.159 29.7231 43.2654 29.8723C43.3717 30.0215 43.5122 30.1431 43.6751 30.2269C43.838 30.3108 44.0186 30.3545 44.2018 30.3543H77.5668C77.7178 30.3543 77.8673 30.3246 78.0068 30.2669C78.1463 30.2091 78.2731 30.1244 78.3798 30.0176C78.4866 29.9109 78.5713 29.7841 78.6291 29.6446C78.6868 29.5051 78.7165 29.3556 78.7165 29.2046V6.89957C78.7166 6.74856 78.6869 6.59903 78.6291 6.45951C78.5714 6.31999 78.4867 6.19322 78.3799 6.08645C78.2731 5.97967 78.1464 5.89499 78.0068 5.83723C77.8673 5.77947 77.7178 5.74977 77.5668 5.74983L77.5675 5.75007ZM76.417 28.0544H45.8409C48.7671 20.3672 55.3791 8.04907 62.966 8.04907H76.417V28.0544ZM93.0884 5.7496H83.8454C83.6944 5.74957 83.5449 5.77929 83.4054 5.83705C83.2659 5.89482 83.1391 5.9795 83.0323 6.08627C82.9255 6.19303 82.8408 6.31979 82.783 6.4593C82.7252 6.5988 82.6955 6.74833 82.6955 6.89933V29.2041C82.6955 29.5091 82.8167 29.8015 83.0324 30.0171C83.248 30.2327 83.5405 30.3538 83.8454 30.3538H123.487C123.68 30.3537 123.869 30.305 124.038 30.2123C124.208 30.1197 124.351 29.9859 124.455 29.8235C124.559 29.661 124.62 29.475 124.634 29.2826C124.647 29.0902 124.612 28.8975 124.531 28.7223C121.612 22.3983 117.388 14.1956 113.838 11.0321C108.992 6.69898 97.2158 5.74983 93.0884 5.74983V5.7496ZM84.9952 28.0544V8.0493H93.0884C96.7106 8.0493 108.017 8.91195 112.305 12.7483C114.683 14.867 117.989 20.2723 121.678 28.0551L84.9952 28.0544ZM78.7165 37.6338C78.7166 37.7848 78.6869 37.9343 78.6291 38.0738C78.5714 38.2133 78.4867 38.3401 78.3799 38.4469C78.2731 38.5537 78.1464 38.6384 78.0068 38.6961C77.8673 38.7539 77.7178 38.7836 77.5668 38.7835H66.8552C66.5503 38.7835 66.2578 38.6624 66.0422 38.4468C65.8266 38.2311 65.7055 37.9387 65.7055 37.6338C65.7055 37.3288 65.8266 37.0364 66.0422 36.8208C66.2578 36.6052 66.5503 36.484 66.8552 36.484H77.5668C77.7178 36.484 77.8673 36.5137 78.0069 36.5715C78.1464 36.6293 78.2731 36.714 78.3799 36.8208C78.4867 36.9276 78.5714 37.0544 78.6291 37.1939C78.6869 37.3334 78.7166 37.483 78.7165 37.634V37.6338Z" fill="#1D1D1D" fill-opacity="0.3"/>
</svg>
