<svg width="812" height="586" viewBox="0 0 812 586" fill="none" xmlns="http://www.w3.org/2000/svg">
<g filter="url(#filter0_d)">
<rect x="100" y="96" width="611.167" height="386" rx="22.5167" fill="url(#paint0_linear)"/>
<path d="M497.719 157.646V170.072C497.719 170.937 497.92 171.571 498.322 171.973C498.754 172.344 499.465 172.529 500.454 172.529H503.468V178H499.388C493.917 178 491.182 175.342 491.182 170.025V157.646H488.122V152.315H491.182V145.963H497.719V152.315H503.468V157.646H497.719ZM518.615 178.417C516.142 178.417 513.917 177.876 511.938 176.795C509.96 175.682 508.399 174.121 507.256 172.112C506.143 170.103 505.587 167.785 505.587 165.157C505.587 162.53 506.158 160.212 507.302 158.203C508.477 156.194 510.068 154.648 512.078 153.566C514.087 152.454 516.328 151.897 518.8 151.897C521.273 151.897 523.514 152.454 525.523 153.566C527.532 154.648 529.108 156.194 530.252 158.203C531.427 160.212 532.014 162.53 532.014 165.157C532.014 167.785 531.411 170.103 530.206 172.112C529.031 174.121 527.424 175.682 525.384 176.795C523.375 177.876 521.118 178.417 518.615 178.417ZM518.615 172.761C519.789 172.761 520.887 172.483 521.907 171.926C522.958 171.339 523.792 170.474 524.41 169.33C525.028 168.186 525.338 166.795 525.338 165.157C525.338 162.715 524.688 160.845 523.39 159.547C522.123 158.218 520.562 157.554 518.708 157.554C516.853 157.554 515.292 158.218 514.025 159.547C512.788 160.845 512.17 162.715 512.17 165.157C512.17 167.599 512.773 169.485 513.978 170.814C515.215 172.112 516.76 172.761 518.615 172.761ZM542.339 156.302C543.173 154.942 544.255 153.875 545.584 153.103C546.944 152.33 548.49 151.944 550.221 151.944V158.759H548.505C546.465 158.759 544.92 159.238 543.869 160.196C542.849 161.155 542.339 162.824 542.339 165.204V178H535.848V152.315H542.339V156.302ZM565.071 178.417C562.598 178.417 560.373 177.876 558.394 176.795C556.416 175.682 554.855 174.121 553.712 172.112C552.599 170.103 552.043 167.785 552.043 165.157C552.043 162.53 552.614 160.212 553.758 158.203C554.933 156.194 556.524 154.648 558.534 153.566C560.543 152.454 562.784 151.897 565.256 151.897C567.729 151.897 569.97 152.454 571.979 153.566C573.988 154.648 575.564 156.194 576.708 158.203C577.883 160.212 578.47 162.53 578.47 165.157C578.47 167.785 577.867 170.103 576.662 172.112C575.487 174.121 573.88 175.682 571.84 176.795C569.831 177.876 567.574 178.417 565.071 178.417ZM565.071 172.761C566.245 172.761 567.343 172.483 568.363 171.926C569.414 171.339 570.248 170.474 570.866 169.33C571.484 168.186 571.794 166.795 571.794 165.157C571.794 162.715 571.144 160.845 569.846 159.547C568.579 158.218 567.018 157.554 565.164 157.554C563.309 157.554 561.748 158.218 560.481 159.547C559.244 160.845 558.626 162.715 558.626 165.157C558.626 167.599 559.229 169.485 560.434 170.814C561.671 172.112 563.216 172.761 565.071 172.761ZM589.861 157.646V170.072C589.861 170.937 590.062 171.571 590.464 171.973C590.897 172.344 591.608 172.529 592.597 172.529H595.61V178H591.53C586.059 178 583.324 175.342 583.324 170.025V157.646H580.264V152.315H583.324V145.963H589.861V152.315H595.61V157.646H589.861ZM605.843 156.302C606.677 154.942 607.759 153.875 609.088 153.103C610.448 152.33 611.993 151.944 613.724 151.944V158.759H612.009C609.969 158.759 608.423 159.238 607.373 160.196C606.353 161.155 605.843 162.824 605.843 165.204V178H599.352V152.315H605.843V156.302ZM641.046 164.601C641.046 165.528 640.985 166.363 640.861 167.105H622.084C622.238 168.959 622.887 170.412 624.031 171.463C625.175 172.514 626.581 173.039 628.25 173.039C630.661 173.039 632.376 172.004 633.396 169.933H640.397C639.655 172.405 638.234 174.445 636.132 176.053C634.03 177.629 631.449 178.417 628.389 178.417C625.916 178.417 623.691 177.876 621.713 176.795C619.765 175.682 618.235 174.121 617.123 172.112C616.041 170.103 615.5 167.785 615.5 165.157C615.5 162.499 616.041 160.165 617.123 158.156C618.205 156.147 619.719 154.602 621.666 153.52C623.614 152.438 625.855 151.897 628.389 151.897C630.831 151.897 633.01 152.423 634.926 153.474C636.874 154.525 638.373 156.024 639.424 157.971C640.505 159.887 641.046 162.097 641.046 164.601ZM634.324 162.746C634.293 161.077 633.69 159.748 632.515 158.759C631.341 157.739 629.904 157.229 628.204 157.229C626.596 157.229 625.236 157.724 624.124 158.713C623.042 159.671 622.377 161.015 622.13 162.746H634.324ZM668.734 164.601C668.734 165.528 668.672 166.363 668.549 167.105H649.771C649.926 168.959 650.575 170.412 651.719 171.463C652.862 172.514 654.269 173.039 655.938 173.039C658.349 173.039 660.064 172.004 661.084 169.933H668.085C667.343 172.405 665.921 174.445 663.82 176.053C661.718 177.629 659.137 178.417 656.077 178.417C653.604 178.417 651.379 177.876 649.4 176.795C647.453 175.682 645.923 174.121 644.81 172.112C643.729 170.103 643.188 167.785 643.188 165.157C643.188 162.499 643.729 160.165 644.81 158.156C645.892 156.147 647.407 154.602 649.354 153.52C651.301 152.438 653.542 151.897 656.077 151.897C658.519 151.897 660.698 152.423 662.614 153.474C664.561 154.525 666.06 156.024 667.111 157.971C668.193 159.887 668.734 162.097 668.734 164.601ZM662.011 162.746C661.98 161.077 661.378 159.748 660.203 158.759C659.029 157.739 657.591 157.229 655.891 157.229C654.284 157.229 652.924 157.724 651.811 158.713C650.73 159.671 650.065 161.015 649.818 162.746H662.011Z" fill="white"/>
<rect x="458.275" y="137.854" width="6.49091" height="49.1455" rx="3.24545" fill="white"/>
<rect x="461.512" y="136.521" width="6.49091" height="23.6455" rx="3.24545" transform="rotate(45 461.512 136.521)" fill="white"/>
<rect x="456.939" y="141.111" width="6.49091" height="23.6455" rx="3.24545" transform="rotate(-45 456.939 141.111)" fill="white"/>
<rect x="461.512" y="152.749" width="6.49091" height="23.6455" rx="3.24545" transform="rotate(45 461.512 152.749)" fill="white"/>
<rect x="456.939" y="157.339" width="6.49091" height="23.6455" rx="3.24545" transform="rotate(-45 456.939 157.339)" fill="white"/>
<rect x="160.045" y="233.244" width="96.5" height="70.7667" rx="9.65" fill="#F7F7F7" fill-opacity="0.2"/>
<rect opacity="0.2" x="191.139" y="247.183" width="34.3111" height="42.8889" rx="3.21667" stroke="#DCE6E5" stroke-width="2.14444"/>
<rect opacity="0.3" x="224.379" y="254.689" width="32.1667" height="2.14444" fill="white"/>
<rect opacity="0.3" x="207.223" y="233.244" width="2.14444" height="15.0111" fill="white"/>
<rect opacity="0.3" x="207.223" y="289" width="2.14444" height="15.0111" fill="white"/>
<rect opacity="0.3" x="224.379" y="267.555" width="32.1667" height="2.14444" fill="white"/>
<rect opacity="0.3" x="224.379" y="280.422" width="32.1667" height="2.14444" fill="white"/>
<rect opacity="0.3" x="160.045" y="254.689" width="32.1667" height="2.14444" fill="white"/>
<rect opacity="0.3" x="160.045" y="267.555" width="32.1667" height="2.14444" fill="white"/>
<rect opacity="0.3" x="160.045" y="280.422" width="32.1667" height="2.14444" fill="white"/>
<path fill-rule="evenodd" clip-rule="evenodd" d="M641.999 410.426C640.317 409.788 637.672 409.091 634.377 409.091C625.968 409.091 620.049 413.41 619.999 419.595C619.946 424.169 624.223 426.721 627.448 428.241C630.763 429.8 631.876 430.797 631.863 432.191C631.84 434.322 629.218 435.299 626.772 435.299C623.367 435.299 621.558 434.818 618.76 433.63L617.666 433.123L616.477 440.248C618.46 441.134 622.137 441.904 625.953 441.944C634.89 441.944 640.697 437.677 640.765 431.073C640.796 427.445 638.529 424.695 633.621 422.425C630.648 420.949 628.824 419.972 628.845 418.478C628.847 417.155 630.386 415.739 633.718 415.739C636.5 415.696 638.514 416.315 640.083 416.962L640.847 417.326L641.999 410.426ZM602.64 441.472L607.961 409.645H616.467L611.146 441.472H602.64ZM657.244 409.678H663.817L670.701 441.484H662.806C662.806 441.484 662.025 437.826 661.77 436.715C661.115 436.715 658.376 436.71 655.798 436.706L655.793 436.706L655.784 436.706C653.494 436.702 651.334 436.699 650.876 436.699C650.545 437.56 649.088 441.484 649.088 441.484H640.154L652.786 412.316C653.679 410.241 655.205 409.678 657.244 409.678ZM653.324 430.188C654.029 428.359 656.713 421.292 656.713 421.292C656.689 421.332 656.843 420.925 657.058 420.36L657.058 420.358C657.299 419.723 657.616 418.886 657.843 418.256L658.417 421.001C658.417 421.001 660.049 428.597 660.385 430.188H653.324ZM587.18 431.37L595.505 409.672H604.519L591.124 441.439L582.122 441.444L574.506 413.609C579.908 416.369 584.737 421.877 586.288 426.959L587.18 431.37Z" fill="white"/>
<path fill-rule="evenodd" clip-rule="evenodd" d="M579.184 409.091H565.116L565 409.779C575.947 412.531 583.19 419.175 586.196 427.16L583.139 411.894C582.611 409.789 581.079 409.164 579.184 409.091" fill="white"/>
</g>
<defs>
<filter id="filter0_d" x="0" y="0" width="811.167" height="586" filterUnits="userSpaceOnUse" color-interpolation-filters="sRGB">
<feFlood flood-opacity="0" result="BackgroundImageFix"/>
<feColorMatrix in="SourceAlpha" type="matrix" values="0 0 0 0 0 0 0 0 0 0 0 0 0 0 0 0 0 0 127 0"/>
<feOffset dy="4"/>
<feGaussianBlur stdDeviation="50"/>
<feColorMatrix type="matrix" values="0 0 0 0 0 0 0 0 0 0 0 0 0 0 0 0 0 0 0.2 0"/>
<feBlend mode="normal" in2="BackgroundImageFix" result="effect1_dropShadow"/>
<feBlend mode="normal" in="SourceGraphic" in2="effect1_dropShadow" result="shape"/>
</filter>
<linearGradient id="paint0_linear" x1="100" y1="96" x2="711" y2="482" gradientUnits="userSpaceOnUse">
<stop stop-color="#18A8FA"/>
<stop offset="0.512365" stop-color="#1BE082"/>
<stop offset="1" stop-color="#EFE609"/>
</linearGradient>
</defs>
</svg>
