<svg width="53" height="54" viewBox="0 0 53 54" fill="none" xmlns="http://www.w3.org/2000/svg">
<path d="M50.2 16C49.4 15.2 48.4 14.6 47.3 14.3V8.9C47.3 4 43.3 0 38.4 0H37.8C37 0 36.3 0.7 36.3 1.5C36.3 2.3 37 3 37.8 3H38.4C41.6 3 44.3 5.6 44.3 8.9V14.2C43.2 14.5 42.1 15 41.2 15.9C39.9 17.2 39.1 19 39.1 20.8V31.3C39.1 32.3 38.3 33.1 37.3 33.1H14.9C13.9 33.1 13.1 32.3 13.1 31.3V20.6C13.1 18.9 12.4 17.2 11.2 16C10.4 15.2 9.4 14.6 8.3 14.3V8.9C8.3 5.7 10.9 3 14.2 3H27.2C28 3 28.7 2.3 28.7 1.5C28.7 0.7 28 0 27.2 0H14.1C9.2 0 5.2 4 5.2 8.9V14.2C4.1 14.5 3 15 2.1 15.9C0.8 17.2 0 19 0 20.8V36.8C0 41.3 3.1 45 7.3 45.9V52C7.3 52.8 8 53.5 8.8 53.5H12.8C13.6 53.5 14.3 52.8 14.3 52V46.2H37.7V52C37.7 52.8 38.4 53.5 39.2 53.5H43.2C44 53.5 44.7 52.8 44.7 52V45.9C48.9 45 52 41.2 52 36.8V20.6C52.1 18.9 51.4 17.3 50.2 16ZM11.4 50.5H10.4V46.2H11.4V50.5ZM41.8 50.5H40.8V46.2H41.8V50.5ZM49.1 36.8C49.1 40.3 46.3 43.2 42.7 43.2H39.2H12.9H9.4C5.9 43.2 3 40.4 3 36.8V20.9C3 19.9 3.4 18.9 4.2 18.1C4.9 17.5 5.7 17.1 6.5 17.1H6.6C7.5 17.1 8.3 17.5 9 18.1C9.7 18.8 10 19.6 10 20.6V31.3C10 33.9 12.1 36.1 14.8 36.1H37.2C39.8 36.1 42 34 42 31.3V20.9C42 19.9 42.4 18.9 43.2 18.1C43.9 17.4 44.7 17.1 45.6 17.1C46.5 17.1 47.3 17.5 48 18.1C48.7 18.8 49 19.6 49 20.6V36.8H49.1Z" fill="#BBBBBB"/>
<path d="M32.3 3.10001H33.2C34 3.10001 34.7 2.40001 34.7 1.60001C34.7 0.800006 34 0.100006 33.2 0.100006H32.3C31.5 0.100006 30.8 0.800006 30.8 1.60001C30.8 2.40001 31.4 3.10001 32.3 3.10001Z" fill="#BBBBBB"/>
</svg>
