<svg width="959" height="220" viewBox="0 0 959 220" fill="none" xmlns="http://www.w3.org/2000/svg">
<path d="M214.525 92.2V145.8C214.525 149.533 215.392 152.267 217.125 154C218.992 155.6 222.058 156.4 226.325 156.4H239.325V180H221.725C198.125 180 186.325 168.533 186.325 145.6V92.2H173.125V69.2H186.325V41.8H214.525V69.2H239.325V92.2H214.525ZM304.664 181.8C293.997 181.8 284.397 179.467 275.864 174.8C267.331 170 260.597 163.267 255.664 154.6C250.864 145.933 248.464 135.933 248.464 124.6C248.464 113.267 250.931 103.267 255.864 94.6C260.931 85.9333 267.797 79.2667 276.464 74.6C285.131 69.8 294.797 67.4 305.464 67.4C316.131 67.4 325.797 69.8 334.464 74.6C343.131 79.2667 349.931 85.9333 354.864 94.6C359.931 103.267 362.464 113.267 362.464 124.6C362.464 135.933 359.864 145.933 354.664 154.6C349.597 163.267 342.664 170 333.864 174.8C325.197 179.467 315.464 181.8 304.664 181.8ZM304.664 157.4C309.731 157.4 314.464 156.2 318.864 153.8C323.397 151.267 326.997 147.533 329.664 142.6C332.331 137.667 333.664 131.667 333.664 124.6C333.664 114.067 330.864 106 325.264 100.4C319.797 94.6667 313.064 91.8 305.064 91.8C297.064 91.8 290.331 94.6667 284.864 100.4C279.531 106 276.864 114.067 276.864 124.6C276.864 135.133 279.464 143.267 284.664 149C289.997 154.6 296.664 157.4 304.664 157.4ZM407.003 86.4C410.603 80.5333 415.27 75.9333 421.003 72.6C426.87 69.2667 433.536 67.6 441.003 67.6V97H433.603C424.803 97 418.136 99.0667 413.603 103.2C409.203 107.333 407.003 114.533 407.003 124.8V180H379.003V69.2H407.003V86.4ZM505.063 181.8C494.396 181.8 484.796 179.467 476.263 174.8C467.729 170 460.996 163.267 456.063 154.6C451.263 145.933 448.863 135.933 448.863 124.6C448.863 113.267 451.329 103.267 456.263 94.6C461.329 85.9333 468.196 79.2667 476.863 74.6C485.529 69.8 495.196 67.4 505.863 67.4C516.529 67.4 526.196 69.8 534.863 74.6C543.529 79.2667 550.329 85.9333 555.263 94.6C560.329 103.267 562.863 113.267 562.863 124.6C562.863 135.933 560.263 145.933 555.062 154.6C549.996 163.267 543.063 170 534.263 174.8C525.596 179.467 515.863 181.8 505.063 181.8ZM505.063 157.4C510.129 157.4 514.863 156.2 519.263 153.8C523.796 151.267 527.396 147.533 530.063 142.6C532.729 137.667 534.063 131.667 534.063 124.6C534.063 114.067 531.263 106 525.663 100.4C520.196 94.6667 513.463 91.8 505.463 91.8C497.463 91.8 490.729 94.6667 485.263 100.4C479.929 106 477.263 114.067 477.263 124.6C477.263 135.133 479.863 143.267 485.063 149C490.396 154.6 497.063 157.4 505.063 157.4ZM612.002 92.2V145.8C612.002 149.533 612.868 152.267 614.602 154C616.468 155.6 619.535 156.4 623.802 156.4H636.802V180H619.202C595.602 180 583.802 168.533 583.802 145.6V92.2H570.602V69.2H583.802V41.8H612.002V69.2H636.802V92.2H612.002ZM680.941 86.4C684.541 80.5333 689.207 75.9333 694.941 72.6C700.807 69.2667 707.474 67.6 714.941 67.6V97H707.541C698.741 97 692.074 99.0667 687.541 103.2C683.141 107.333 680.941 114.533 680.941 124.8V180H652.941V69.2H680.941V86.4ZM832.8 122.2C832.8 126.2 832.533 129.8 832 133H751C751.667 141 754.467 147.267 759.4 151.8C764.333 156.333 770.4 158.6 777.6 158.6C788 158.6 795.4 154.133 799.8 145.2H830C826.8 155.867 820.667 164.667 811.6 171.6C802.533 178.4 791.4 181.8 778.2 181.8C767.533 181.8 757.933 179.467 749.4 174.8C741 170 734.4 163.267 729.6 154.6C724.933 145.933 722.6 135.933 722.6 124.6C722.6 113.133 724.933 103.067 729.6 94.4C734.267 85.7333 740.8 79.0667 749.2 74.4C757.6 69.7333 767.267 67.4 778.2 67.4C788.733 67.4 798.133 69.6667 806.4 74.2C814.8 78.7333 821.267 85.2 825.8 93.6C830.467 101.867 832.8 111.4 832.8 122.2ZM803.8 114.2C803.667 107 801.067 101.267 796 97C790.933 92.6 784.733 90.4 777.4 90.4C770.467 90.4 764.6 92.5333 759.8 96.8C755.133 100.933 752.267 106.733 751.2 114.2H803.8ZM952.238 122.2C952.238 126.2 951.971 129.8 951.438 133H870.438C871.104 141 873.904 147.267 878.838 151.8C883.771 156.333 889.838 158.6 897.038 158.6C907.438 158.6 914.838 154.133 919.238 145.2H949.438C946.238 155.867 940.104 164.667 931.038 171.6C921.971 178.4 910.838 181.8 897.638 181.8C886.971 181.8 877.371 179.467 868.838 174.8C860.438 170 853.838 163.267 849.038 154.6C844.371 145.933 842.037 135.933 842.037 124.6C842.037 113.133 844.371 103.067 849.038 94.4C853.704 85.7333 860.238 79.0667 868.638 74.4C877.038 69.7333 886.704 67.4 897.638 67.4C908.171 67.4 917.571 69.6667 925.838 74.2C934.238 78.7333 940.704 85.2 945.238 93.6C949.904 101.867 952.238 111.4 952.238 122.2ZM923.238 114.2C923.104 107 920.504 101.267 915.438 97C910.371 92.6 904.171 90.4 896.838 90.4C889.904 90.4 884.038 92.5333 879.238 96.8C874.571 100.933 871.704 106.733 870.638 114.2H923.238Z" fill="white"/>
<path fill-rule="evenodd" clip-rule="evenodd" d="M24.5343 84.2744L52.9998 55.8088V86.2109L4.73527 134.475C-0.732069 139.943 -0.73207 148.807 4.73527 154.274C10.2026 159.742 19.0669 159.742 24.5343 154.274L52.9998 125.809V206C52.9998 213.732 59.2678 220 66.9998 220C74.7318 220 80.9998 213.732 80.9998 206V125.809L109.465 154.274C114.933 159.742 123.797 159.742 129.264 154.274C134.732 148.807 134.732 139.943 129.264 134.475L80.9998 86.2109V55.8089L109.465 84.2744C114.933 89.7417 123.797 89.7417 129.264 84.2744C134.732 78.807 134.732 69.9427 129.264 64.4754L77.2079 12.419C74.654 9.69898 71.0253 8 66.9998 8C62.9744 8 59.3458 9.69892 56.7919 12.4188L4.73527 64.4754C-0.732069 69.9428 -0.73207 78.8071 4.73527 84.2744C10.2026 89.7418 19.0669 89.7418 24.5343 84.2744Z" fill="url(#paint0_linear)"/>
<defs>
<linearGradient id="paint0_linear" x1="0.634766" y1="8" x2="175.383" y2="51.6536" gradientUnits="userSpaceOnUse">
<stop stop-color="#18A8FA"/>
<stop offset="0.512365" stop-color="#1BE082"/>
<stop offset="1" stop-color="#EFE609"/>
</linearGradient>
</defs>
</svg>
