<svg width="85" height="84" viewBox="0 0 85 84" fill="none" xmlns="http://www.w3.org/2000/svg">
<path d="M78.6514 42.001C78.6514 43.7843 78.5265 45.5586 78.2947 47.3241C78.3304 47.0834 78.3571 46.8515 78.3928 46.6108C77.9202 50.0347 77.0107 53.3784 75.6733 56.5616C75.7624 56.3476 75.8516 56.1336 75.9407 55.9196C75.1739 57.7297 74.2734 59.4862 73.248 61.1625C72.7397 61.9918 72.1958 62.8121 71.6252 63.6056C71.4914 63.7929 71.3488 63.9801 71.2061 64.1763C71.1348 64.2744 71.0634 64.3635 70.9921 64.4527C70.7513 64.7648 71.4201 63.9177 71.0902 64.3279C70.787 64.7113 70.4839 65.0858 70.1718 65.4603C68.9056 66.9672 67.5236 68.3671 66.0434 69.6689C65.6779 69.9899 65.3034 70.3019 64.9289 70.614C64.7505 70.7656 64.5633 70.9083 64.385 71.0509C64.3404 71.0866 64.2958 71.1223 64.2423 71.1579C64.0283 71.3273 64.59 70.8726 64.5544 70.9172C64.483 71.0153 64.3225 71.0955 64.2245 71.1668C63.4398 71.7553 62.6373 72.3082 61.817 72.8342C59.9445 74.029 57.974 75.0634 55.9321 75.9283C56.1461 75.8391 56.3601 75.7499 56.5741 75.6608C53.3909 76.9982 50.0383 77.9166 46.6233 78.3803C46.864 78.3446 47.0959 78.3179 47.3366 78.2822C43.8057 78.7548 40.2212 78.7548 36.6814 78.2822C36.9221 78.3179 37.154 78.3446 37.3947 78.3803C33.9708 77.9077 30.6271 76.9982 27.4439 75.6608C27.6579 75.7499 27.8719 75.8391 28.0859 75.9283C26.2758 75.1614 24.5193 74.2609 22.843 73.2355C22.0137 72.7272 21.1934 72.1833 20.3999 71.6127C20.2126 71.4789 20.0254 71.3363 19.8292 71.1936C19.7311 71.1223 19.642 71.0509 19.5528 70.9796C19.2407 70.7388 20.0878 71.4076 19.6776 71.0777C19.2942 70.7745 18.9197 70.4714 18.5452 70.1593C17.0383 68.8931 15.6384 67.5111 14.3366 66.0309C14.0156 65.6654 13.7036 65.2909 13.3915 64.9164C13.2399 64.738 13.0972 64.5508 12.9546 64.3725C12.9189 64.3279 12.8832 64.2833 12.8476 64.2298C12.6782 64.0158 13.1329 64.5775 13.0883 64.5419C12.9902 64.4705 12.91 64.31 12.8387 64.212C12.2502 63.4273 11.6973 62.6248 11.1713 61.8045C9.97646 59.932 8.94215 57.9615 8.07725 55.9196C8.16641 56.1336 8.25558 56.3476 8.34474 56.5616C7.00727 53.3784 6.08887 50.0258 5.62521 46.6108C5.66088 46.8515 5.68763 47.0834 5.72329 47.3241C5.25072 43.7932 5.25072 40.2087 5.72329 36.6689C5.68763 36.9096 5.66088 37.1415 5.62521 37.3822C6.09779 33.9583 7.00727 30.6146 8.34474 27.4314C8.25558 27.6454 8.16641 27.8594 8.07725 28.0734C8.84407 26.2633 9.74464 24.5068 10.77 22.8305C11.2783 22.0012 11.8222 21.1809 12.3928 20.3874C12.5266 20.2001 12.6692 20.0129 12.8119 19.8167C12.8832 19.7186 12.9546 19.6295 13.0259 19.5403C13.2667 19.2282 12.6068 20.0753 12.9278 19.6651C13.231 19.2817 13.5341 18.9072 13.8462 18.5327C15.1124 17.0258 16.4944 15.6259 17.9746 14.3241C18.3401 14.0031 18.7146 13.6911 19.0891 13.379C19.2675 13.2274 19.4547 13.0847 19.633 12.9421C19.6776 12.9064 19.7222 12.8707 19.7757 12.8351C19.9897 12.6657 19.428 13.1204 19.4636 13.0758C19.535 12.9777 19.6955 12.8975 19.7935 12.8262C20.5782 12.2377 21.3807 11.6849 22.201 11.1588C24.0735 9.96397 26.044 8.92965 28.0859 8.06475C27.8719 8.15392 27.6579 8.24308 27.4439 8.33225C30.6271 6.99477 33.9797 6.07637 37.3947 5.61271C37.154 5.64838 36.9221 5.67513 36.6814 5.71079C40.2123 5.23822 43.7968 5.23822 47.3366 5.71079C47.0959 5.67513 46.864 5.64838 46.6233 5.61271C50.0472 6.08529 53.3909 6.99477 56.5741 8.33225C56.3601 8.24308 56.1461 8.15392 55.9321 8.06475C57.7422 8.83157 59.4987 9.73214 61.175 10.7575C62.0043 11.2658 62.8246 11.8097 63.6181 12.3803C63.8054 12.5141 63.9926 12.6568 64.1888 12.7994C64.2869 12.8707 64.376 12.9421 64.4652 13.0134C64.7773 13.2542 63.9302 12.5943 64.3404 12.9153C64.7238 13.2185 65.0983 13.5217 65.4728 13.8337C66.9797 15.0999 68.3796 16.4819 69.6814 17.9621C70.0024 18.3276 70.3144 18.7021 70.6265 19.0766C70.7781 19.255 70.9208 19.4422 71.0634 19.6205C71.0991 19.6651 71.1348 19.7097 71.1704 19.7632C71.3398 19.9772 70.8851 19.4155 70.9297 19.4511C71.0278 19.5225 71.108 19.683 71.1793 19.781C71.7678 20.5657 72.3207 21.3682 72.8467 22.1885C74.0415 24.061 75.0758 26.0315 75.9407 28.0734C75.8516 27.8594 75.7624 27.6454 75.6733 27.4314C77.0107 30.6146 77.9291 33.9672 78.3928 37.3822C78.3571 37.1415 78.3304 36.9096 78.2947 36.6689C78.5355 38.4433 78.6514 40.2177 78.6514 42.001C78.6514 43.4009 79.8818 44.7383 81.3263 44.6759C82.7708 44.6135 84.0013 43.4989 84.0013 42.001C83.9924 37.6586 83.3325 33.2717 81.9861 29.1344C80.6843 25.122 78.794 21.2701 76.342 17.8372C73.7919 14.2617 70.7781 11.1677 67.2917 8.50166C63.9481 5.94262 60.221 3.95424 56.2709 2.50977C52.2229 1.00288 47.8894 0.200396 43.5738 0.0309828C39.1869 -0.138431 34.7287 0.387643 30.5112 1.59137C26.472 2.7416 22.5576 4.51598 19.0445 6.82536C15.5671 9.1169 12.4018 11.8988 9.75355 15.1088C6.94485 18.5238 4.72465 22.2509 3.03943 26.3347C1.39879 30.3293 0.462557 34.5824 0.12373 38.8802C-0.224014 43.276 0.168312 47.761 1.21154 52.0409C2.21019 56.1336 3.85974 60.1193 6.04429 63.7216C8.20208 67.2703 10.8949 70.5427 13.9978 73.3068C17.1186 76.0798 20.6317 78.4338 24.4479 80.1547C28.5852 82.0271 32.8919 83.213 37.4036 83.7391C41.7816 84.2473 46.2399 83.9977 50.5644 83.1239C54.7106 82.2857 58.7497 80.7521 62.4501 78.6924C66.0791 76.6683 69.4406 74.0736 72.3117 71.0688C75.2007 68.0461 77.6795 64.5775 79.543 60.8326C81.4422 57.0164 82.8065 52.9237 83.4484 48.7062C83.7873 46.486 83.9924 44.2479 84.0013 42.001C84.0013 40.6011 82.7708 39.2636 81.3263 39.326C79.8818 39.3884 78.6603 40.503 78.6514 42.001Z" fill="#BBBBBB"/>
<path d="M44.6795 63.1063C44.6795 61.1803 44.6795 59.2544 44.6795 57.3284C44.6795 55.9285 43.449 54.591 42.0045 54.6534C40.5512 54.7159 39.3296 55.8304 39.3296 57.3284C39.3296 59.2544 39.3296 61.1803 39.3296 63.1063C39.3296 64.5062 40.5601 65.8436 42.0045 65.7812C43.4579 65.7188 44.6795 64.6132 44.6795 63.1063Z" fill="#BBBBBB"/>
<path d="M44.6795 26.5308C44.6795 24.6494 44.6795 22.777 44.6795 20.8956C44.6795 19.4957 43.449 18.1582 42.0045 18.2206C40.5512 18.2831 39.3296 19.3976 39.3296 20.8956C39.3296 22.777 39.3296 24.6494 39.3296 26.5308C39.3296 27.9307 40.5601 29.2682 42.0045 29.2058C43.4579 29.1344 44.6795 28.0288 44.6795 26.5308Z" fill="#BBBBBB"/>
<path d="M29.1916 50.2309C29.2094 52.7721 30.2259 55.2152 32.0092 57.0253C33.8192 58.8532 36.2891 59.8786 38.8482 60.0034C39.8646 60.048 40.8989 60.0123 41.9154 60.0123C42.9141 60.0123 43.9127 60.0301 44.9114 60.0123C49.7352 59.9321 54.452 56.4635 55.2456 51.5505C55.6914 48.7864 55.1832 45.9242 53.4623 43.6505C52.5706 42.4735 51.5274 41.466 50.2345 40.7259C48.8614 39.9234 47.3812 39.5133 45.8119 39.326C44.528 39.1744 43.1994 39.2636 41.9154 39.2636C40.6582 39.2636 39.3564 39.3528 38.1081 39.1923C38.3488 39.2279 38.5807 39.2547 38.8214 39.2904C38.0992 39.1834 37.4037 38.9961 36.726 38.7108C36.94 38.7999 37.154 38.8891 37.368 38.9783C36.9133 38.7821 36.4853 38.5503 36.0751 38.2828C36.0305 38.256 35.7363 38.0866 35.7363 38.051C35.7363 38.0955 36.3426 38.5414 35.9146 38.1847C35.7363 38.0331 35.5669 37.8815 35.3975 37.721C35.237 37.5606 35.0765 37.3911 34.9249 37.2128C34.7822 37.0434 34.6039 36.7046 35.0586 37.3911C34.9962 37.2931 34.9249 37.2039 34.8536 37.1058C34.5682 36.6867 34.3364 36.2498 34.1402 35.7862C34.2294 36.0002 34.3186 36.2142 34.4077 36.4282C34.1492 35.804 33.9797 35.1709 33.8906 34.5022C33.9262 34.7429 33.953 34.9748 33.9887 35.2155C33.9084 34.5557 33.9084 33.9048 33.9887 33.2539C33.953 33.4946 33.9262 33.7265 33.8906 33.9672C33.9797 33.3252 34.1492 32.7011 34.3988 32.0947C34.3097 32.3087 34.2205 32.5227 34.1313 32.7367C34.3186 32.2998 34.5415 31.8718 34.809 31.4706C34.8714 31.3725 34.9427 31.2833 35.0051 31.1942C35.2816 30.784 34.6841 31.5776 34.8803 31.3547C35.0497 31.1674 35.2102 30.9802 35.3885 30.8018C35.549 30.6413 35.7274 30.4898 35.8968 30.3382C36.2267 30.0439 35.4688 30.6413 35.7363 30.463C35.8344 30.4006 35.9235 30.3293 36.0216 30.2669C36.4496 29.9815 36.8954 29.7408 37.3591 29.5357C37.1451 29.6249 36.9311 29.714 36.7171 29.8032C37.3769 29.5268 38.0635 29.3395 38.7768 29.2236C38.5361 29.2593 38.3042 29.286 38.0635 29.3217C39.3653 29.1523 40.7117 29.2415 42.0224 29.2415C43.2707 29.2415 44.5547 29.1523 45.7941 29.3039C45.5534 29.2682 45.3215 29.2415 45.0808 29.2058C45.7584 29.3039 46.4183 29.4822 47.0603 29.7408C46.8463 29.6516 46.6323 29.5624 46.4183 29.4733C46.8284 29.6516 47.2297 29.8656 47.6042 30.1153C47.7022 30.1777 47.7914 30.249 47.8895 30.3114C48.1481 30.4808 47.3545 29.8745 47.6666 30.142C47.8449 30.2936 48.0143 30.4452 48.1837 30.6057C48.3353 30.7573 48.4691 30.9178 48.6117 31.0693C48.9327 31.4349 48.4423 30.8464 48.4423 30.8464C48.4691 30.8375 48.6117 31.0872 48.6474 31.1318C48.906 31.5152 49.12 31.9253 49.3072 32.3533C49.218 32.1393 49.1289 31.9253 49.0397 31.7113C49.2626 32.2552 49.4142 32.817 49.5034 33.4055C49.4677 33.1647 49.441 32.9329 49.4053 32.6921C49.4499 33.0131 49.4677 33.3341 49.4766 33.6551C49.4855 35.055 50.6982 36.3925 52.1516 36.3301C53.5871 36.2677 54.8354 35.1531 54.8265 33.6551C54.8087 31.1318 53.81 28.7154 52.0535 26.9053C50.2702 25.0685 47.836 24.061 45.2948 23.8916C44.2694 23.8202 43.2262 23.8737 42.1918 23.8737C41.211 23.8737 40.2213 23.8648 39.2405 23.8737C36.3694 23.8916 33.5161 25.0329 31.5099 27.1104C29.575 29.1166 28.4158 31.9342 28.5942 34.7429C28.7547 37.2574 29.7622 39.6203 31.5366 41.4303C33.3378 43.2671 35.7095 44.2836 38.2329 44.5689C39.4723 44.7116 40.7652 44.6313 42.0135 44.6313C43.3153 44.6313 44.6706 44.5422 45.9724 44.7116C45.7317 44.6759 45.4999 44.6492 45.2591 44.6135C45.9724 44.7205 46.6501 44.9077 47.3188 45.1931C47.1048 45.1039 46.8908 45.0147 46.6768 44.9256C47.1227 45.1217 47.5507 45.3536 47.9608 45.6211C48.0589 45.6835 48.1481 45.7548 48.2461 45.8172C48.6563 46.1026 47.8627 45.4962 48.0856 45.6924C48.2729 45.8618 48.4691 46.0223 48.6474 46.2006C48.8079 46.3611 48.9595 46.5306 49.111 46.7C49.4053 47.0299 48.8079 46.272 48.9862 46.5306C49.0486 46.6197 49.12 46.7178 49.1824 46.807C49.4588 47.226 49.6995 47.6629 49.8957 48.1266C49.8065 47.9126 49.7174 47.6986 49.6282 47.4846C49.8779 48.0909 50.0384 48.7151 50.1364 49.3571C50.1008 49.1163 50.074 48.8845 50.0384 48.6438C50.1186 49.3036 50.1186 49.9545 50.0384 50.6054C50.074 50.3646 50.1008 50.1328 50.1364 49.8921C50.0473 50.5519 49.869 51.1939 49.6193 51.818C49.7085 51.604 49.7976 51.39 49.8868 51.1761C49.6995 51.6219 49.4677 52.0499 49.2002 52.4511C49.1735 52.4868 48.9951 52.7899 48.9684 52.781C48.9951 52.7899 49.4677 52.1658 49.1021 52.6027C48.9505 52.781 48.799 52.9504 48.6296 53.1109C48.4691 53.2714 48.2907 53.4319 48.1124 53.5746C47.9341 53.7173 47.6042 53.8777 48.2907 53.4408C48.1926 53.5033 48.1035 53.5746 48.0054 53.6459C47.5774 53.9312 47.1316 54.172 46.659 54.3771C46.873 54.2879 47.087 54.1987 47.301 54.1096C46.6233 54.386 45.9279 54.5822 45.2056 54.6891C45.4464 54.6535 45.6782 54.6267 45.9189 54.5911C44.6528 54.7516 43.3332 54.6624 42.067 54.6624C40.8098 54.6624 39.4991 54.7516 38.2507 54.6C38.4915 54.6357 38.7233 54.6624 38.9641 54.6981C38.2864 54.6 37.6266 54.4217 36.9846 54.1631C37.1986 54.2522 37.4126 54.3414 37.6266 54.4306C37.2164 54.2522 36.8152 54.0382 36.4407 53.7886C36.3426 53.7262 36.2534 53.6548 36.1554 53.5924C35.8968 53.423 36.6904 54.0293 36.3783 53.7618C36.2 53.6103 36.0305 53.4587 35.8611 53.2982C35.7095 53.1466 35.5758 52.9861 35.4331 52.8345C35.1121 52.4689 35.6025 53.0574 35.6025 53.0574C35.5758 53.0663 35.4331 52.8167 35.3975 52.7721C35.1389 52.3887 34.9249 51.9785 34.7376 51.5505C34.8268 51.7645 34.916 51.9785 35.0051 52.1925C34.7822 51.6486 34.6306 51.0869 34.5415 50.4984C34.5771 50.7391 34.6039 50.971 34.6396 51.2117C34.595 50.8907 34.5771 50.5697 34.5682 50.2487C34.5593 48.8488 33.3467 47.5114 31.8933 47.5738C30.431 47.6273 29.1827 48.7329 29.1916 50.2309Z" fill="#BBBBBB"/>
</svg>
