<svg width="200" height="200" viewBox="0 0 200 200" fill="none" xmlns="http://www.w3.org/2000/svg">
<circle cx="100" cy="100" r="100" fill="#2F80ED"/>
<path d="M128.315 79.7939C119.421 76.1484 112.842 78.5788 108.09 80.7661C106.019 81.7382 104.557 82.4673 103.461 82.9534C103.948 79.0648 105.532 75.2978 108.09 71.7738C111.502 67.0346 115.4 64.2397 115.522 64.2397C116.984 63.2675 117.35 61.3233 116.375 59.9866C115.4 58.5284 113.451 58.1638 111.989 59.1359C111.745 59.2575 107.116 62.4169 103.095 68.0067C102.242 69.2219 101.39 70.5586 100.659 71.7738C100.049 70.6801 99.4402 69.708 98.7092 68.8573C100.293 63.7536 97.3691 58.0423 91.7647 55.6119C81.5307 51.2373 70.3221 53.1816 63.0121 55.4904C62.0374 55.7334 61.3064 56.8271 61.0627 57.9208C60.8191 59.0144 61.3064 59.9866 62.1592 60.3511C67.6417 62.1739 75.6827 66.0624 83.4801 74.8117C86.6477 78.3357 91.3992 77.1205 94.9324 74.3256C95.9071 76.0269 97.6127 79.6724 97.2472 83.1964C96.0289 82.7104 94.4451 81.8597 92.2521 80.7661C87.3787 78.5788 80.9216 76.1484 71.9059 79.7939C60.9409 84.4116 57.8951 102.032 65.0832 119.166C72.2714 136.3 87.0132 146.507 97.9782 141.889C98.5874 141.646 99.3184 141.403 100.049 141.403C100.78 141.403 101.511 141.525 102.121 141.889C103.948 142.619 105.776 142.983 107.725 142.983C117.715 142.983 129.046 133.505 135.016 119.166C142.326 102.032 139.28 84.4116 128.315 79.7939Z" fill="white"/>
</svg>
