<svg width="200" height="200" viewBox="0 0 200 200" fill="none" xmlns="http://www.w3.org/2000/svg">
<circle cx="100" cy="100" r="100" fill="#2F80ED"/>
<path d="M143.104 133.298L136.156 140.246C133.076 143.325 128.992 145 124.723 145C124.053 145 123.383 144.957 122.703 144.87C108.212 143.077 92.2526 134.4 78.9185 121.067C65.5844 107.744 56.9184 91.7855 55.1246 77.2961C54.5087 72.3042 56.1944 67.4095 59.7602 63.8439L66.7082 56.8963C69.2367 54.3679 73.3536 54.3679 75.8713 56.8963L91.1504 72.1745C92.3715 73.3955 93.0522 75.027 93.0522 76.7558C93.0522 78.4846 92.3823 80.1162 91.1504 81.3371L82.7437 89.7434L110.255 117.253L118.661 108.847C121.19 106.318 125.296 106.318 127.825 108.847L143.104 124.125C145.632 126.653 145.632 130.77 143.104 133.298Z" fill="white"/>
</svg>
