<svg width="12" height="16" viewBox="0 0 12 16" fill="none" xmlns="http://www.w3.org/2000/svg">
<path d="M5.86879 0C2.63359 0 0 2.63359 0 5.87199C0 9.0176 5.39199 15.6064 5.6224 15.8848C5.6832 15.9584 5.77279 16 5.86879 16C5.9648 16 6.05439 15.9584 6.1152 15.8848C6.34561 15.6064 11.7408 9.0176 11.7408 5.87199C11.7408 2.63359 9.10721 0 5.86879 0ZM5.86879 8.58879C4.37119 8.58879 3.15199 7.36959 3.15199 5.87199C3.15199 4.37439 4.37119 3.1552 5.86879 3.1552C7.36641 3.1552 8.58561 4.37439 8.58561 5.87199C8.58561 7.36959 7.36641 8.58879 5.86879 8.58879Z" fill="#2F80ED"/>
</svg>
