<svg width="134" height="212" viewBox="0 0 134 212" fill="none" xmlns="http://www.w3.org/2000/svg">
<path fill-rule="evenodd" clip-rule="evenodd" d="M24.5343 76.2744L52.9998 47.8088V78.2109L4.73527 126.475C-0.732069 131.943 -0.73207 140.807 4.73527 146.274C10.2026 151.742 19.0669 151.742 24.5343 146.274L52.9998 117.809V198C52.9998 205.732 59.2678 212 66.9998 212C74.7318 212 80.9998 205.732 80.9998 198V117.809L109.465 146.274C114.933 151.742 123.797 151.742 129.264 146.274C134.732 140.807 134.732 131.943 129.264 126.475L80.9998 78.2109V47.8089L109.465 76.2744C114.933 81.7417 123.797 81.7417 129.264 76.2744C134.732 70.807 134.732 61.9427 129.264 56.4754L77.2079 4.41899C74.654 1.69898 71.0253 0 66.9998 0C62.9744 0 59.3458 1.69892 56.7919 4.41885L4.73527 56.4754C-0.732069 61.9428 -0.73207 70.8071 4.73527 76.2744C10.2026 81.7418 19.0669 81.7418 24.5343 76.2744Z" fill="url(#paint0_linear)"/>
<defs>
<linearGradient id="paint0_linear" x1="0.634766" y1="0" x2="175.383" y2="43.6536" gradientUnits="userSpaceOnUse">
<stop stop-color="#18A8FA"/>
<stop offset="0.512365" stop-color="#1BE082"/>
<stop offset="1" stop-color="#EFE609"/>
</linearGradient>
</defs>
</svg>
