<svg width="124" height="28" viewBox="0 0 124 28" fill="none" xmlns="http://www.w3.org/2000/svg">
<path d="M28.3077 11.8256V18.6473C28.3077 19.1225 28.418 19.4703 28.6387 19.6909C28.8762 19.8946 29.2665 19.9964 29.8096 19.9964H31.4641V23H29.2241C26.2205 23 24.7187 21.5406 24.7187 18.6219V11.8256H23.0387V8.89831H24.7187V5.41107H28.3077V8.89831H31.4641V11.8256H28.3077ZM39.7799 23.2291C38.4223 23.2291 37.2005 22.9321 36.1145 22.3382C35.0284 21.7273 34.1715 20.8703 33.5436 19.7673C32.9327 18.6643 32.6272 17.3916 32.6272 15.9492C32.6272 14.5067 32.9412 13.234 33.569 12.131C34.2139 11.028 35.0878 10.1795 36.1908 9.58557C37.2938 8.97467 38.5241 8.66922 39.8817 8.66922C41.2393 8.66922 42.4696 8.97467 43.5726 9.58557C44.6756 10.1795 45.541 11.028 46.1689 12.131C46.8138 13.234 47.1362 14.5067 47.1362 15.9492C47.1362 17.3916 46.8053 18.6643 46.1435 19.7673C45.4986 20.8703 44.6162 21.7273 43.4962 22.3382C42.3932 22.9321 41.1544 23.2291 39.7799 23.2291ZM39.7799 20.1237C40.4247 20.1237 41.0271 19.9709 41.5871 19.6655C42.1641 19.3431 42.6223 18.8679 42.9617 18.24C43.3011 17.6122 43.4708 16.8485 43.4708 15.9492C43.4708 14.6086 43.1144 13.5819 42.4017 12.8692C41.7059 12.1395 40.849 11.7746 39.8308 11.7746C38.8126 11.7746 37.9557 12.1395 37.2599 12.8692C36.5811 13.5819 36.2417 14.6086 36.2417 15.9492C36.2417 17.2897 36.5726 18.3249 37.2345 19.0546C37.9132 19.7673 38.7617 20.1237 39.7799 20.1237ZM52.8047 11.0874C53.2629 10.3407 53.8569 9.75527 54.5865 9.33103C55.3332 8.90679 56.1817 8.69467 57.132 8.69467V12.4365H56.1902C55.0702 12.4365 54.2217 12.6995 53.6447 13.2255C53.0847 13.7516 52.8047 14.668 52.8047 15.9746V23H49.2411V8.89831H52.8047V11.0874ZM65.2849 23.2291C63.9274 23.2291 62.7055 22.9321 61.6195 22.3382C60.5334 21.7273 59.6765 20.8703 59.0486 19.7673C58.4377 18.6643 58.1323 17.3916 58.1323 15.9492C58.1323 14.5067 58.4462 13.234 59.0741 12.131C59.7189 11.028 60.5928 10.1795 61.6959 9.58557C62.7989 8.97467 64.0292 8.66922 65.3867 8.66922C66.7443 8.66922 67.9746 8.97467 69.0776 9.58557C70.1806 10.1795 71.0461 11.028 71.6739 12.131C72.3188 13.234 72.6412 14.5067 72.6412 15.9492C72.6412 17.3916 72.3103 18.6643 71.6485 19.7673C71.0037 20.8703 70.1212 21.7273 69.0012 22.3382C67.8982 22.9321 66.6594 23.2291 65.2849 23.2291ZM65.2849 20.1237C65.9298 20.1237 66.5322 19.9709 67.0922 19.6655C67.6691 19.3431 68.1273 18.8679 68.4667 18.24C68.8061 17.6122 68.9758 16.8485 68.9758 15.9492C68.9758 14.6086 68.6194 13.5819 67.9067 12.8692C67.211 12.1395 66.354 11.7746 65.3358 11.7746C64.3176 11.7746 63.4607 12.1395 62.7649 12.8692C62.0862 13.5819 61.7468 14.6086 61.7468 15.9492C61.7468 17.2897 62.0777 18.3249 62.7395 19.0546C63.4183 19.7673 64.2667 20.1237 65.2849 20.1237ZM78.8952 11.8256V18.6473C78.8952 19.1225 79.0055 19.4703 79.2261 19.6909C79.4637 19.8946 79.854 19.9964 80.397 19.9964H82.0516V23H79.8116C76.808 23 75.3062 21.5406 75.3062 18.6219V11.8256H73.6262V8.89831H75.3062V5.41107H78.8952V8.89831H82.0516V11.8256H78.8952ZM87.6692 11.0874C88.1274 10.3407 88.7213 9.75527 89.451 9.33103C90.1977 8.90679 91.0461 8.69467 91.9964 8.69467V12.4365H91.0546C89.9346 12.4365 89.0862 12.6995 88.5092 13.2255C87.9492 13.7516 87.6692 14.668 87.6692 15.9746V23H84.1056V8.89831H87.6692V11.0874ZM106.997 15.6437C106.997 16.1528 106.963 16.611 106.895 17.0182H96.5858C96.6706 18.0364 97.027 18.834 97.6549 19.4109C98.2827 19.9879 99.0548 20.2764 99.9712 20.2764C101.295 20.2764 102.237 19.7079 102.797 18.5709H106.64C106.233 19.9285 105.452 21.0485 104.298 21.9309C103.144 22.7964 101.728 23.2291 100.048 23.2291C98.69 23.2291 97.4682 22.9321 96.3821 22.3382C95.3131 21.7273 94.4731 20.8703 93.8622 19.7673C93.2682 18.6643 92.9713 17.3916 92.9713 15.9492C92.9713 14.4898 93.2682 13.2086 93.8622 12.1056C94.4561 11.0025 95.2876 10.1541 96.3567 9.56012C97.4258 8.96619 98.6561 8.66922 100.048 8.66922C101.388 8.66922 102.585 8.9577 103.637 9.53467C104.706 10.1116 105.529 10.9347 106.106 12.0037C106.7 13.0558 106.997 14.2692 106.997 15.6437ZM103.306 14.6255C103.289 13.7092 102.958 12.9795 102.313 12.4365C101.668 11.8765 100.879 11.5965 99.9457 11.5965C99.0633 11.5965 98.3167 11.868 97.7058 12.411C97.1118 12.9371 96.747 13.6752 96.6112 14.6255H103.306ZM122.198 15.6437C122.198 16.1528 122.164 16.611 122.096 17.0182H111.787C111.872 18.0364 112.228 18.834 112.856 19.4109C113.484 19.9879 114.256 20.2764 115.172 20.2764C116.496 20.2764 117.438 19.7079 117.998 18.5709H121.841C121.434 19.9285 120.653 21.0485 119.499 21.9309C118.346 22.7964 116.929 23.2291 115.249 23.2291C113.891 23.2291 112.669 22.9321 111.583 22.3382C110.514 21.7273 109.674 20.8703 109.063 19.7673C108.469 18.6643 108.172 17.3916 108.172 15.9492C108.172 14.4898 108.469 13.2086 109.063 12.1056C109.657 11.0025 110.489 10.1541 111.558 9.56012C112.627 8.96619 113.857 8.66922 115.249 8.66922C116.589 8.66922 117.786 8.9577 118.838 9.53467C119.907 10.1116 120.73 10.9347 121.307 12.0037C121.901 13.0558 122.198 14.2692 122.198 15.6437ZM118.507 14.6255C118.49 13.7092 118.159 12.9795 117.514 12.4365C116.869 11.8765 116.08 11.5965 115.147 11.5965C114.264 11.5965 113.518 11.868 112.907 12.411C112.313 12.9371 111.948 13.6752 111.812 14.6255H118.507Z" fill="white"/>
<path fill-rule="evenodd" clip-rule="evenodd" d="M3.04173 10.7258L6.6699 7.09763V10.967L0.521878 17.1151C-0.173959 17.8109 -0.173959 18.9391 0.521878 19.6349C1.21771 20.3308 2.34589 20.3308 3.04173 19.6349L6.6699 16.0067V26.2182C6.6699 27.2022 7.46764 28 8.4517 28C9.43576 28 10.2335 27.2022 10.2335 26.2182V16.0142L13.8544 19.6351C14.5503 20.3309 15.6784 20.3309 16.3743 19.6351C17.0701 18.9393 17.0701 17.8111 16.3743 17.1153L10.2335 10.9745V7.1048L13.8544 10.7257C14.5503 11.4215 15.6784 11.4215 16.3743 10.7257C17.0701 10.0299 17.0701 8.9017 16.3743 8.20586L9.77123 1.60283C9.44527 1.24382 8.97481 1.0184 8.4517 1.0184C8.12706 1.0184 7.82269 1.10523 7.56056 1.25692C7.42489 1.33415 7.2972 1.43063 7.18148 1.54636L0.521878 8.20596C-0.173959 8.90179 -0.173959 10.03 0.521878 10.7258C1.21771 11.4216 2.34589 11.4216 3.04173 10.7258Z" fill="white"/>
</svg>
