<svg width="587" height="812" viewBox="0 0 587 812" fill="none" xmlns="http://www.w3.org/2000/svg">
<g filter="url(#filter0_d)">
<rect x="100.582" y="707.583" width="611.167" height="386" rx="22.5167" transform="rotate(-90 100.582 707.583)" fill="url(#paint0_linear)"/>
<path d="M162.228 309.863H174.654C175.519 309.863 176.153 309.662 176.555 309.26C176.926 308.827 177.111 308.116 177.111 307.127V304.114H182.582V308.194C182.582 313.665 179.924 316.4 174.607 316.4H162.228V319.46H156.897V316.4H150.545V309.863H156.897V304.114H162.228V309.863ZM182.999 288.967C182.999 291.44 182.458 293.665 181.377 295.643C180.264 297.622 178.703 299.182 176.694 300.326C174.685 301.439 172.367 301.995 169.739 301.995C167.112 301.995 164.794 301.423 162.785 300.28C160.776 299.105 159.23 297.513 158.148 295.504C157.036 293.495 156.479 291.254 156.479 288.782C156.479 286.309 157.036 284.068 158.148 282.059C159.23 280.05 160.776 278.473 162.785 277.33C164.794 276.155 167.112 275.568 169.739 275.568C172.367 275.568 174.685 276.171 176.694 277.376C178.703 278.551 180.264 280.158 181.377 282.198C182.458 284.207 182.999 286.463 182.999 288.967ZM177.343 288.967C177.343 287.792 177.065 286.695 176.508 285.675C175.921 284.624 175.056 283.79 173.912 283.172C172.768 282.553 171.377 282.244 169.739 282.244C167.297 282.244 165.427 282.893 164.129 284.192C162.8 285.459 162.136 287.02 162.136 288.874C162.136 290.729 162.8 292.29 164.129 293.557C165.427 294.793 167.297 295.412 169.739 295.412C172.181 295.412 174.067 294.809 175.396 293.603C176.694 292.367 177.343 290.822 177.343 288.967ZM160.884 265.243C159.524 264.408 158.457 263.327 157.685 261.997C156.912 260.637 156.526 259.092 156.526 257.361H163.341V259.077C163.341 261.117 163.82 262.662 164.778 263.713C165.737 264.733 167.406 265.243 169.786 265.243H182.582V271.734H156.897V265.243H160.884ZM182.999 242.511C182.999 244.984 182.458 247.209 181.377 249.187C180.264 251.166 178.703 252.726 176.694 253.87C174.685 254.983 172.367 255.539 169.739 255.539C167.112 255.539 164.794 254.967 162.785 253.824C160.776 252.649 159.23 251.057 158.148 249.048C157.036 247.039 156.479 244.798 156.479 242.326C156.479 239.853 157.036 237.612 158.148 235.603C159.23 233.594 160.776 232.017 162.785 230.874C164.794 229.699 167.112 229.112 169.739 229.112C172.367 229.112 174.685 229.715 176.694 230.92C178.703 232.095 180.264 233.702 181.377 235.742C182.458 237.751 182.999 240.007 182.999 242.511ZM177.343 242.511C177.343 241.336 177.065 240.239 176.508 239.219C175.921 238.168 175.056 237.334 173.912 236.716C172.768 236.097 171.377 235.788 169.739 235.788C167.297 235.788 165.427 236.437 164.129 237.736C162.8 239.003 162.136 240.564 162.136 242.418C162.136 244.273 162.8 245.834 164.129 247.101C165.427 248.337 167.297 248.956 169.739 248.956C172.181 248.956 174.067 248.353 175.396 247.147C176.694 245.911 177.343 244.366 177.343 242.511ZM162.228 217.721H174.654C175.519 217.721 176.153 217.52 176.555 217.118C176.926 216.685 177.111 215.974 177.111 214.985V211.971H182.582V216.051C182.582 221.522 179.924 224.258 174.607 224.258H162.228V227.318H156.897V224.258H150.545V217.721H156.897V211.971H162.228V217.721ZM160.884 201.739C159.524 200.905 158.457 199.823 157.685 198.494C156.912 197.134 156.526 195.588 156.526 193.857H163.341V195.573C163.341 197.613 163.82 199.158 164.778 200.209C165.737 201.229 167.406 201.739 169.786 201.739H182.582V208.23H156.897V201.739H160.884ZM169.183 166.535C170.11 166.535 170.945 166.597 171.687 166.721V185.498C173.541 185.344 174.994 184.695 176.045 183.551C177.096 182.407 177.621 181.001 177.621 179.332C177.621 176.921 176.586 175.205 174.515 174.185V167.185C176.987 167.926 179.027 169.348 180.635 171.45C182.211 173.552 182.999 176.133 182.999 179.193C182.999 181.665 182.458 183.891 181.377 185.869C180.264 187.816 178.703 189.346 176.694 190.459C174.685 191.541 172.367 192.082 169.739 192.082C167.081 192.082 164.747 191.541 162.738 190.459C160.729 189.377 159.184 187.863 158.102 185.915C157.02 183.968 156.479 181.727 156.479 179.193C156.479 176.751 157.005 174.572 158.056 172.655C159.107 170.708 160.606 169.209 162.553 168.158C164.469 167.076 166.679 166.535 169.183 166.535ZM167.328 173.258C165.659 173.289 164.33 173.892 163.341 175.066C162.321 176.241 161.811 177.678 161.811 179.378C161.811 180.985 162.306 182.345 163.295 183.458C164.253 184.54 165.597 185.205 167.328 185.452V173.258ZM169.183 138.848C170.11 138.848 170.945 138.909 171.687 139.033V157.81C173.541 157.656 174.994 157.007 176.045 155.863C177.096 154.719 177.621 153.313 177.621 151.644C177.621 149.233 176.586 147.518 174.515 146.498V139.497C176.987 140.239 179.027 141.66 180.635 143.762C182.211 145.864 182.999 148.445 182.999 151.505C182.999 153.978 182.458 156.203 181.377 158.181C180.264 160.129 178.703 161.659 176.694 162.771C174.685 163.853 172.367 164.394 169.739 164.394C167.081 164.394 164.747 163.853 162.738 162.771C160.729 161.689 159.184 160.175 158.102 158.228C157.02 156.28 156.479 154.039 156.479 151.505C156.479 149.063 157.005 146.884 158.056 144.968C159.107 143.02 160.606 141.521 162.553 140.47C164.469 139.389 166.679 138.848 169.183 138.848ZM167.328 145.57C165.659 145.601 164.33 146.204 163.341 147.379C162.321 148.553 161.811 149.99 161.811 151.69C161.811 153.298 162.306 154.658 163.295 155.77C164.253 156.852 165.597 157.517 167.328 157.764V145.57Z" fill="white"/>
<rect x="142.438" y="349.306" width="6.49091" height="49.1455" rx="3.24545" transform="rotate(-90 142.438 349.306)" fill="white"/>
<rect x="141.104" y="346.072" width="6.49091" height="23.6455" rx="3.24545" transform="rotate(-45 141.104 346.072)" fill="white"/>
<rect x="145.693" y="350.644" width="6.49091" height="23.6455" rx="3.24545" transform="rotate(-135 145.693 350.644)" fill="white"/>
<rect x="157.33" y="346.071" width="6.49091" height="23.6455" rx="3.24545" transform="rotate(-45 157.33 346.071)" fill="white"/>
<rect x="161.92" y="350.643" width="6.49091" height="23.6455" rx="3.24545" transform="rotate(-135 161.92 350.643)" fill="white"/>
<rect x="237.826" y="647.539" width="96.5" height="70.7667" rx="9.65" transform="rotate(-90 237.826 647.539)" fill="#F7F7F7" fill-opacity="0.2"/>
<rect opacity="0.2" x="251.766" y="616.444" width="34.3111" height="42.8889" rx="3.21667" transform="rotate(-90 251.766 616.444)" stroke="#DCE6E5" stroke-width="2.14444"/>
<rect opacity="0.3" x="259.27" y="583.206" width="32.1667" height="2.14444" transform="rotate(-90 259.27 583.206)" fill="white"/>
<rect opacity="0.3" x="237.826" y="600.361" width="2.14444" height="15.0111" transform="rotate(-90 237.826 600.361)" fill="white"/>
<rect opacity="0.3" x="293.582" y="600.361" width="2.14444" height="15.0111" transform="rotate(-90 293.582 600.361)" fill="white"/>
<rect opacity="0.3" x="272.137" y="583.206" width="32.1667" height="2.14444" transform="rotate(-90 272.137 583.206)" fill="white"/>
<rect opacity="0.3" x="285.004" y="583.206" width="32.1667" height="2.14444" transform="rotate(-90 285.004 583.206)" fill="white"/>
<rect opacity="0.3" x="259.27" y="647.539" width="32.1667" height="2.14444" transform="rotate(-90 259.27 647.539)" fill="white"/>
<rect opacity="0.3" x="272.137" y="647.539" width="32.1667" height="2.14444" transform="rotate(-90 272.137 647.539)" fill="white"/>
<rect opacity="0.3" x="285.004" y="647.539" width="32.1667" height="2.14444" transform="rotate(-90 285.004 647.539)" fill="white"/>
<path fill-rule="evenodd" clip-rule="evenodd" d="M415.008 165.585C414.369 167.267 413.672 169.912 413.672 173.207C413.672 181.616 417.991 187.536 424.176 187.585C428.75 187.638 431.302 183.361 432.823 180.136C434.381 176.821 435.379 175.708 436.772 175.721C438.904 175.744 439.88 178.366 439.88 180.812C439.88 184.217 439.4 186.027 438.211 188.824L437.705 189.918L444.829 191.107C445.715 189.124 446.485 185.447 446.525 181.631C446.525 172.694 442.258 166.887 435.654 166.819C432.026 166.788 429.276 169.055 427.006 173.963C425.531 176.936 424.553 178.76 423.059 178.739C421.736 178.737 420.32 177.198 420.32 173.867C420.277 171.084 420.896 169.07 421.543 167.501L421.907 166.737L415.008 165.585ZM446.053 204.944L414.227 199.623V191.117L446.053 196.438V204.944ZM414.259 150.34V143.767L446.065 136.884V144.778C446.065 144.778 442.407 145.559 441.296 145.814C441.296 146.469 441.292 149.208 441.287 151.786L441.287 151.791L441.287 151.8C441.284 154.09 441.28 156.25 441.28 156.708C442.141 157.039 446.065 158.496 446.065 158.496V167.43L416.897 154.799C414.822 153.905 414.259 152.379 414.259 150.34ZM434.769 154.26C432.94 153.555 425.874 150.872 425.874 150.872C425.913 150.895 425.507 150.741 424.941 150.527L424.939 150.526C424.304 150.285 423.468 149.968 422.837 149.741L425.582 149.167C425.582 149.167 433.178 147.535 434.769 147.199V154.26ZM435.951 220.404L414.253 212.079V203.066L446.02 216.46L446.025 225.462L418.19 233.078C420.95 227.676 426.459 222.847 431.541 221.296L435.951 220.404Z" fill="white"/>
<path fill-rule="evenodd" clip-rule="evenodd" d="M413.673 228.399V242.467L414.361 242.583C417.113 231.636 423.757 224.394 431.742 221.388L416.476 224.445C414.371 224.972 413.746 226.505 413.673 228.399" fill="white"/>
</g>
<defs>
<filter id="filter0_d" x="0.582031" y="0.416504" width="586" height="811.167" filterUnits="userSpaceOnUse" color-interpolation-filters="sRGB">
<feFlood flood-opacity="0" result="BackgroundImageFix"/>
<feColorMatrix in="SourceAlpha" type="matrix" values="0 0 0 0 0 0 0 0 0 0 0 0 0 0 0 0 0 0 127 0"/>
<feOffset dy="4"/>
<feGaussianBlur stdDeviation="50"/>
<feColorMatrix type="matrix" values="0 0 0 0 0 0 0 0 0 0 0 0 0 0 0 0 0 0 0.2 0"/>
<feBlend mode="normal" in2="BackgroundImageFix" result="effect1_dropShadow"/>
<feBlend mode="normal" in="SourceGraphic" in2="effect1_dropShadow" result="shape"/>
</filter>
<linearGradient id="paint0_linear" x1="100.582" y1="707.583" x2="711.582" y2="1093.58" gradientUnits="userSpaceOnUse">
<stop stop-color="#18A8FA"/>
<stop offset="0.512365" stop-color="#1BE082"/>
<stop offset="1" stop-color="#EFE609"/>
</linearGradient>
</defs>
</svg>
